<?xml version="1.0" encoding="iso-8859-1"?>
<!-- Generator: Adobe Illustrator 19.0.0, SVG Export Plug-In . SVG Version: 6.00 Build 0)  -->
<svg version="1.1" id="Layer_1" xmlns="http://www.w3.org/2000/svg" xmlns:xlink="http://www.w3.org/1999/xlink" x="0px" y="0px"
	 viewBox="0 0 512 512" style="enable-background:new 0 0 512 512;" xml:space="preserve">
<path style="fill:#5286FA;" d="M393.864,363.458c-3.601-8.696-12.088-14.367-21.499-14.367h-93.091V23.273
	C279.274,10.42,268.853,0,256.001,0c-12.854,0-23.273,10.42-23.273,23.273v325.818h-93.092c-9.413,0-17.9,5.671-21.502,14.367
	c-3.6,8.696-1.609,18.707,5.046,25.363l116.364,116.364C244.089,509.729,250.042,512,256,512c5.955,0,11.913-2.271,16.454-6.817
	l116.364-116.364C395.476,382.163,397.467,372.154,393.864,363.458z"/>
<g>
</g>
<g>
</g>
<g>
</g>
<g>
</g>
<g>
</g>
<g>
</g>
<g>
</g>
<g>
</g>
<g>
</g>
<g>
</g>
<g>
</g>
<g>
</g>
<g>
</g>
<g>
</g>
<g>
</g>
</svg>
