<svg width="23" height="19" viewBox="0 0 23 19" fill="none" xmlns="http://www.w3.org/2000/svg">
<path fill-rule="evenodd" clip-rule="evenodd" d="M22.352 2.93956C21.5401 3.29364 20.6816 3.52771 19.803 3.63449C20.7299 3.07781 21.4245 2.20206 21.758 1.16968C20.8869 1.69094 19.9334 2.0582 18.9389 2.2555C17.5717 0.764981 15.3753 0.391433 13.5965 1.34688C11.8176 2.30232 10.9057 4.34538 11.3782 6.31645C7.81641 6.13534 4.49873 4.44207 2.25134 1.6583C1.86157 2.34255 1.65677 3.11744 1.65728 3.90594C1.65448 5.39319 2.39242 6.78313 3.62307 7.60857C2.91882 7.58931 2.22961 7.39933 1.61408 7.0548V7.1091C1.62496 9.22424 3.11481 11.0397 5.17841 11.4524C4.79309 11.5702 4.39305 11.6324 3.9903 11.6369C3.71152 11.6337 3.43343 11.6083 3.15863 11.5609C3.74293 13.3701 5.40368 14.608 7.29541 14.6447C5.73705 15.8773 3.81304 16.5501 1.8301 16.5557C1.46906 16.5569 1.10831 16.5351 0.75 16.4905C2.77457 17.8047 5.13393 18.5023 7.54384 18.4993C10.9032 18.5344 14.1357 17.2105 16.5143 14.8254C18.8929 12.4404 20.2181 9.19423 20.1918 5.81697C20.1918 5.63239 20.1918 5.43694 20.1918 5.24149C21.0394 4.60608 21.7704 3.82714 22.352 2.93956Z" fill="#1E59A4"/>
</svg>
