<svg width="34" height="34" viewBox="0 0 34 34" fill="none" xmlns="http://www.w3.org/2000/svg">
<g clip-path="url(#clip0_277:195)">
<path d="M17.04 23.6135C16.4659 23.6135 16 23.1475 16 22.5735V1.08004C16 0.505957 16.4659 0.0400391 17.04 0.0400391C17.6141 0.0400391 18.08 0.505957 18.08 1.08004V22.5735C18.08 23.1475 17.6141 23.6135 17.04 23.6135Z" fill="#1E59A4"/>
<path d="M17.0398 23.6137C16.7735 23.6137 16.5074 23.5124 16.3048 23.3085L10.7582 17.7619C10.3519 17.3557 10.3519 16.697 10.7582 16.2905C11.1644 15.8843 11.8231 15.8843 12.2296 16.2905L17.0411 21.1023L21.8529 16.2905C22.2591 15.8843 22.918 15.8843 23.3243 16.2905C23.7305 16.697 23.7305 17.3557 23.3243 17.7619L17.7774 23.3085C17.5723 23.5124 17.3062 23.6137 17.0398 23.6137Z" fill="#1E59A4"/>
<path d="M29.8666 33.32H4.21344C2.10983 33.32 0.400024 31.6102 0.400024 29.5066V23.2666C0.400024 22.6925 0.865942 22.2266 1.44002 22.2266C2.01411 22.2266 2.48002 22.6925 2.48002 23.2666V29.5066C2.48002 30.462 3.25799 31.24 4.21344 31.24H29.8666C30.8221 31.24 31.6 30.462 31.6 29.5066V23.2666C31.6 22.6925 32.0659 22.2266 32.64 22.2266C33.2141 22.2266 33.68 22.6925 33.68 23.2666V29.5066C33.68 31.6102 31.9702 33.32 29.8666 33.32Z" fill="#1E59A4"/>
</g>
<defs>
<clipPath id="clip0_277:195">
<rect width="33.28" height="33.28" fill="white" transform="translate(0.400024 0.0400391)"/>
</clipPath>
</defs>
</svg>
