<svg width="19" height="19" viewBox="0 0 19 19" fill="none" xmlns="http://www.w3.org/2000/svg">
<path fill-rule="evenodd" clip-rule="evenodd" d="M14.4212 3.96165C13.9807 3.96165 13.5836 4.22698 13.415 4.63391C13.2465 5.04084 13.3397 5.50924 13.6511 5.82069C13.9626 6.13214 14.431 6.22531 14.8379 6.05676C15.2448 5.8882 15.5102 5.49111 15.5102 5.05065C15.5102 4.44921 15.0226 3.96165 14.4212 3.96165ZM18.5956 6.15751C18.5779 5.40456 18.4369 4.65959 18.1781 3.95229C17.9474 3.3471 17.5882 2.79911 17.1254 2.34601C16.676 1.88085 16.1268 1.52398 15.5191 1.30239C14.8137 1.03573 14.0679 0.891479 13.3139 0.875861C12.3519 0.821411 12.0434 0.821411 9.575 0.821411C7.1066 0.821411 6.79805 0.821411 5.8361 0.875861C5.08211 0.891479 4.33631 1.03573 3.63087 1.30239C3.02437 1.52622 2.47557 1.88279 2.0246 2.34601C1.55944 2.79538 1.20257 3.34466 0.980975 3.95229C0.714316 4.65773 0.570068 5.40352 0.55445 6.15751C0.5 7.11946 0.5 7.42801 0.5 9.89641C0.5 12.3648 0.5 12.6734 0.55445 13.6353C0.570068 14.3893 0.714316 15.1351 0.980975 15.8405C1.20257 16.4482 1.55944 16.9974 2.0246 17.4468C2.47557 17.91 3.02437 18.2666 3.63087 18.4904C4.33631 18.7571 5.08211 18.9013 5.8361 18.917C6.79805 18.9714 7.1066 18.9714 9.575 18.9714C12.0434 18.9714 12.3519 18.9714 13.3139 18.917C14.0679 18.9013 14.8137 18.7571 15.5191 18.4904C16.1268 18.2688 16.676 17.912 17.1254 17.4468C17.5903 16.9954 17.9497 16.4469 18.1781 15.8405C18.4369 15.1332 18.5779 14.3883 18.5956 13.6353C18.5956 12.6734 18.65 12.3648 18.65 9.89641C18.65 7.42801 18.65 7.11946 18.5956 6.15751ZM16.9619 13.5264C16.9553 14.1024 16.851 14.6732 16.6534 15.2143C16.5085 15.6093 16.2758 15.9661 15.9728 16.2579C15.6784 16.5579 15.3223 16.7901 14.9291 16.9386C14.388 17.1362 13.8172 17.2405 13.2412 17.2471C12.3337 17.2925 11.9979 17.3016 9.61119 17.3016C7.22446 17.3016 6.88869 17.3016 5.98119 17.2471C5.38305 17.2583 4.78746 17.1662 4.22064 16.9749C3.84473 16.8188 3.50494 16.5872 3.22239 16.2942C2.92118 16.0027 2.69136 15.6456 2.55084 15.2506C2.32928 14.7017 2.20639 14.118 2.18784 13.5264C2.18784 12.6189 2.13339 12.2831 2.13339 9.89637C2.13339 7.50964 2.13339 7.17387 2.18784 6.26637C2.19191 5.67745 2.29942 5.09383 2.50546 4.54212C2.66523 4.15907 2.91045 3.81762 3.22239 3.54387C3.4981 3.23184 3.83884 2.98403 4.22064 2.81787C4.77381 2.61826 5.35682 2.51393 5.94489 2.50932C6.85239 2.50932 7.18816 2.45487 9.57489 2.45487C11.9616 2.45487 12.2974 2.45487 13.2049 2.50932C13.7809 2.51593 14.3517 2.62026 14.8928 2.81787C15.3052 2.97092 15.6754 3.21975 15.9728 3.54387C16.2702 3.82263 16.5025 4.16345 16.6534 4.54212C16.8551 5.09473 16.9595 5.67811 16.9619 6.26637C17.0073 7.17387 17.0164 7.50964 17.0164 9.89637C17.0164 12.2831 17.0073 12.6189 16.9619 13.5264ZM9.57491 5.24116C7.00495 5.24617 4.92518 7.33271 4.92852 9.90267C4.93186 12.4726 7.01704 14.5538 9.58701 14.5521C12.157 14.5504 14.2395 12.4666 14.2395 9.89664C14.2419 8.65961 13.7509 7.47268 12.8754 6.59883C11.9998 5.72497 10.8119 5.23632 9.57491 5.24116ZM9.57501 12.9185C7.90601 12.9185 6.55303 11.5655 6.55303 9.89649C6.55303 8.2275 7.90601 6.87451 9.57501 6.87451C11.244 6.87451 12.597 8.2275 12.597 9.89649C12.597 10.698 12.2786 11.4666 11.7119 12.0333C11.1451 12.6001 10.3765 12.9185 9.57501 12.9185Z" fill="#1E59A4"/>
</svg>
