<svg width="34" height="34" viewBox="0 0 34 34" fill="none" xmlns="http://www.w3.org/2000/svg">
<g clip-path="url(#clip0_277:201)">
<path d="M16.84 0.0400391C10.0611 0.0400391 4.54626 5.55489 4.54626 12.3338C4.54626 14.5655 5.54712 16.9657 5.58907 17.0669C5.91232 17.8342 6.55015 19.026 7.01008 19.7246L15.4393 32.4964C15.7842 33.0199 16.2948 33.32 16.84 33.32C17.3853 33.32 17.8959 33.0199 18.2408 32.4971L26.6707 19.7246C27.1314 19.026 27.7685 17.8342 28.0918 17.0669C28.1337 16.9664 29.1338 14.5662 29.1338 12.3338C29.1338 5.55489 23.619 0.0400391 16.84 0.0400391ZM26.7582 16.5058C26.4697 17.1935 25.876 18.3021 25.4631 18.9284L17.0331 31.7009C16.8668 31.9533 16.814 31.9533 16.6477 31.7009L8.21777 18.9284C7.80484 18.3021 7.21112 17.1928 6.92258 16.505C6.91029 16.4754 5.99259 14.2661 5.99259 12.3338C5.99259 6.35254 10.8588 1.48637 16.84 1.48637C22.8213 1.48637 27.6875 6.35254 27.6875 12.3338C27.6875 14.269 26.7676 16.4841 26.7582 16.5058Z" fill="white" stroke="white" stroke-width="0.256"/>
<path d="M16.8401 5.82568C13.2511 5.82568 10.3317 8.74582 10.3317 12.3342C10.3317 15.9225 13.2511 18.8426 16.8401 18.8426C20.4292 18.8426 23.3486 15.9225 23.3486 12.3342C23.3486 8.74582 20.4292 5.82568 16.8401 5.82568ZM16.8401 17.3963C14.0495 17.3963 11.778 15.1256 11.778 12.3342C11.778 9.54275 14.0495 7.27201 16.8401 7.27201C19.6308 7.27201 21.9023 9.54275 21.9023 12.3342C21.9023 15.1256 19.6308 17.3963 16.8401 17.3963Z" fill="white" stroke="white" stroke-width="0.256"/>
</g>
<defs>
<clipPath id="clip0_277:201">
<rect width="33.28" height="33.28" fill="white" transform="translate(0.200073 0.0400391)"/>
</clipPath>
</defs>
</svg>
