<svg width="72" height="72" viewBox="0 0 72 72" fill="none" xmlns="http://www.w3.org/2000/svg">
<rect x="0.230469" y="0.294922" width="70.8561" height="70.8561" rx="11.1878" fill="#1E59A4"/>
<path d="M50.8129 29.9657C52.1232 29.9657 53.433 29.9657 54.7423 29.9657C54.9895 29.9657 55.0492 29.9051 55.0492 29.6541C55.0492 28.3509 55.0492 27.0478 55.0492 25.7447C55.0492 25.492 54.9937 25.4373 54.7406 25.4373H50.8112C50.5589 25.4373 50.5151 25.4785 50.5151 25.727C50.5151 26.3783 50.5151 27.0296 50.5151 27.6808C50.5151 28.3321 50.5151 28.9907 50.5151 29.6566C50.5151 29.9278 50.5496 29.9657 50.8129 29.9657Z" fill="#E41A22"/>
<path d="M33.8273 36.2917C32.9521 36.2833 32.076 36.2833 31.199 36.2917C30.7936 36.296 30.5354 36.5739 30.5338 36.9773C30.5338 37.4186 30.5338 37.8607 30.5338 38.302C30.5324 38.7918 30.3375 39.2612 29.9915 39.6074C29.6456 39.9537 29.1768 40.1487 28.6876 40.1498C26.4942 40.1537 24.3004 40.1537 22.1064 40.1498C21.8642 40.1504 21.6244 40.1029 21.4006 40.0103C21.1768 39.9176 20.9735 39.7815 20.8025 39.6098C20.6314 39.4382 20.496 39.2343 20.4039 39.01C20.3119 38.7857 20.2651 38.5454 20.2662 38.3029C20.2662 35.8364 20.2662 33.3691 20.2662 30.9009C20.2639 30.66 20.309 30.4211 20.3991 30.1977C20.4892 29.9744 20.6223 29.771 20.791 29.5993C20.9597 29.4275 21.1606 29.2908 21.3821 29.197C21.6036 29.1031 21.8415 29.0539 22.082 29.0523C24.2901 29.0405 26.4978 29.0405 28.7053 29.0523C29.115 29.0573 29.5115 29.1984 29.8325 29.4534C30.1535 29.7084 30.381 30.0629 30.4791 30.4613C30.5548 30.7653 30.5312 31.0744 30.5338 31.3818C30.5338 31.8096 30.7861 32.0682 31.2066 32.0699C32.069 32.0699 32.931 32.0699 33.7928 32.0699C34.2134 32.0699 34.4833 31.8425 34.5002 31.4281C34.5262 30.7493 34.5557 30.0663 34.4724 29.3917C34.1864 27.0908 32.305 25.4503 29.9803 25.4503H25.3747C24.527 25.4503 23.6783 25.4503 22.8306 25.4503C21.9828 25.4503 21.1485 25.4107 20.3074 25.4696C18.0534 25.6271 16.235 27.5936 16.2342 29.8591C16.2342 33.035 16.2258 36.2101 16.2342 39.3851C16.2393 40.6374 16.7212 41.7045 17.627 42.5652C18.4983 43.3939 19.553 43.7897 20.754 43.7906C23.8104 43.7906 26.8662 43.7906 29.9215 43.7906C30.2224 43.7906 30.5228 43.7686 30.8206 43.7249C32.8138 43.4293 34.4623 41.5925 34.5212 39.5754C34.5456 38.7147 34.533 37.8515 34.5296 36.9899C34.533 36.5815 34.2478 36.296 33.8273 36.2917Z" fill="white"/>
<path d="M54.2124 32.3901C49.8389 32.3901 45.4654 32.3918 41.092 32.3952C40.8867 32.3952 40.8396 32.3396 40.8396 32.1425C40.8481 30.1524 40.8447 28.1615 40.8447 26.1706C40.8447 25.6577 40.6437 25.4539 40.1374 25.4539H37.0465C36.4998 25.4539 36.314 25.6535 36.314 26.1925V34.6042C36.314 37.4289 36.314 40.2536 36.314 43.0783C36.314 43.5516 36.5276 43.7723 36.9818 43.7731H40.1567C40.6344 43.7731 40.8439 43.5617 40.8439 43.08C40.8439 40.7808 40.8439 38.4817 40.8388 36.1825C40.8388 35.9938 40.8901 35.9526 41.0726 35.9526C44.115 35.9587 47.1571 35.9587 50.1989 35.9526C50.3805 35.9526 50.431 35.9905 50.4302 36.18C50.4226 38.4935 50.4251 40.8061 50.4302 43.1196C50.4302 43.5533 50.6522 43.7723 51.0904 43.7731H54.2233C54.7641 43.7731 54.9651 43.5685 54.9651 43.0202V33.1329C54.9609 32.5863 54.7633 32.3901 54.2124 32.3901Z" fill="white"/>
</svg>
