<svg width="7" height="10" viewBox="0 0 11 19" fill="none" xmlns="http://www.w3.org/2000/svg">
<path d="M10.2423 0.825167L7.8764 0.821411C5.21845 0.821411 3.50076 2.56512 3.50076 5.26398V7.3123H1.12201C0.916454 7.3123 0.75 7.47719 0.75 7.68057V10.6484C0.75 10.8517 0.916644 11.0164 1.12201 11.0164H3.50076V18.5051C3.50076 18.7085 3.66722 18.8732 3.87277 18.8732H6.97637C7.18193 18.8732 7.34838 18.7083 7.34838 18.5051V11.0164H10.1297C10.3353 11.0164 10.5017 10.8517 10.5017 10.6484L10.5028 7.68057C10.5028 7.58292 10.4636 7.4894 10.3939 7.42029C10.3242 7.35118 10.2293 7.3123 10.1307 7.3123H7.34838V5.57591C7.34838 4.74134 7.54938 4.31766 8.64813 4.31766L10.2419 4.3171C10.4472 4.3171 10.6137 4.15221 10.6137 3.94901V1.19325C10.6137 0.990242 10.4474 0.825543 10.2423 0.825167Z" fill="#1E59A4"/>
</svg>
