<svg width="55" height="46" viewBox="0 0 55 46" fill="none" xmlns="http://www.w3.org/2000/svg">
<path d="M54.1623 17.3733L44.6076 1.09251C44.1696 0.346099 43.2113 0.0929562 42.4618 0.525746L36.7357 3.83173L31.5779 1.93457C31.3881 1.86475 31.1958 1.80616 31.0021 1.75692C29.5499 1.38776 28.0106 1.59491 26.6971 2.35329L18.1712 7.27577C16.288 8.363 15.6428 10.7711 16.73 12.6543C17.8173 14.5374 20.2253 15.1826 22.1085 14.0954L31.4643 8.69373C32.4389 8.13106 33.6396 8.13106 34.6142 8.69373C34.6142 8.69373 53.4636 19.5801 53.5241 19.6175L53.805 19.3863C54.4026 18.8943 54.5541 18.0409 54.1623 17.3733Z" fill="#1E59A4"/>
<path d="M51.7669 22.234L33.0392 11.4217L23.6834 16.8232C22.5914 17.4537 21.3794 17.7757 20.1514 17.7757C19.5357 17.7757 18.9161 17.6948 18.3055 17.5313C16.4769 17.0413 14.9485 15.8686 14.0021 14.2291C13.0556 12.5898 12.8042 10.6799 13.2942 8.85127C13.6987 7.34165 14.5695 6.03771 15.7831 5.0958L11.9216 2.86634C11.1517 2.42179 10.1665 2.70234 9.74624 3.48581L0.808747 20.1487C0.406721 20.8983 0.672464 21.8318 1.40921 22.257L2.22786 22.7296L3.66472 20.2408C4.85673 18.1761 7.07916 16.8935 9.46464 16.8935C10.6351 16.8935 11.7913 17.2037 12.8081 17.7909C13.393 18.1285 13.9148 18.5447 14.3628 19.0249C15.0869 18.7605 15.8604 18.6184 16.6523 18.6184C17.8228 18.6184 18.9789 18.9287 19.9958 19.5158C21.544 20.4096 22.6516 21.8531 23.1143 23.5801C23.1652 23.77 23.2061 23.9609 23.2401 24.1522C23.8841 24.301 24.5062 24.5448 25.0834 24.878C26.6318 25.7719 27.7394 27.2153 28.2021 28.9423C28.253 29.1322 28.2938 29.3231 28.3278 29.5144C28.9719 29.6632 29.5939 29.9069 30.171 30.2401C33.3673 32.0856 34.4664 36.1874 32.6212 39.3835L30.6592 42.7818L34.8647 45.2099C36.5596 46.1884 38.7268 45.6077 39.7053 43.9129C40.6839 42.218 40.1031 40.0508 38.4083 39.0722L41.1362 40.6471C42.831 41.6257 44.9982 41.045 45.9768 39.3501C46.9553 37.6553 46.3746 35.488 44.6798 34.5094L46.4984 35.5594C48.1932 36.5379 50.3605 35.9572 51.339 34.2623C52.3175 32.5674 51.7368 30.4001 50.0419 29.4217L48.2234 28.3717C49.9182 29.3503 52.0854 28.7696 53.0639 27.0746C54.0425 25.3798 53.4618 23.2126 51.7669 22.234Z" fill="#1E59A4"/>
<path d="M28.5961 32.9682C26.9013 31.9896 24.7341 32.5704 23.7556 34.2652L24.8055 32.4467C25.7841 30.7518 25.2033 28.5846 23.5085 27.6061C21.8137 26.6275 19.6465 27.2083 18.6679 28.9031L19.7179 27.0845C20.6964 25.3896 20.1157 23.2224 18.4209 22.2439C16.726 21.2653 14.5588 21.8461 13.5803 23.5409L12.5303 25.3594C13.5088 23.6646 12.9282 21.4974 11.2332 20.5188C9.53838 19.5403 7.37118 20.121 6.39263 21.8158L2.58656 28.4081C1.608 30.103 2.18873 32.2703 3.88356 33.2487C5.57839 34.2273 7.7457 33.6465 8.72415 31.9516C7.74559 33.6464 8.32632 35.8138 10.0212 36.7922C11.716 37.7708 13.8833 37.19 14.8617 35.4951C13.8832 37.1899 14.4639 39.3572 16.1588 40.3357C17.8537 41.3142 20.0209 40.7335 20.9994 39.0386C20.0209 40.7334 20.6016 42.9007 22.2964 43.8792C23.9913 44.8577 26.1586 44.277 27.137 42.582L29.8931 37.8083C30.8718 36.1139 30.2911 33.9466 28.5961 32.9682Z" fill="#1E59A4"/>
</svg>
