<svg width="19" height="26" viewBox="0 0 19 26" fill="none" xmlns="http://www.w3.org/2000/svg">
<path d="M9.27239 0.184814C4.2163 0.184814 0.103027 4.29808 0.103027 9.35418C0.103027 11.0187 0.849521 12.8089 0.880805 12.8844C1.12191 13.4567 1.59763 14.3455 1.94068 14.8666L8.22762 24.3925C8.4849 24.783 8.8657 25.0068 9.27239 25.0068C9.67908 25.0068 10.0599 24.783 10.3172 24.393L16.6046 14.8666C16.9482 14.3455 17.4234 13.4567 17.6645 12.8844C17.6958 12.8094 18.4418 11.0192 18.4418 9.35418C18.4418 4.29808 14.3285 0.184814 9.27239 0.184814ZM16.6699 12.4658C16.4547 12.9788 16.0119 13.8056 15.7039 14.2727L9.4164 23.7992C9.29235 23.9874 9.25297 23.9874 9.12892 23.7992L2.84143 14.2727C2.53345 13.8056 2.09062 12.9782 1.87541 12.4653C1.86624 12.4432 1.18178 10.7954 1.18178 9.35418C1.18178 4.89301 4.81122 1.26356 9.27239 1.26356C13.7336 1.26356 17.363 4.89301 17.363 9.35418C17.363 10.7975 16.6769 12.4496 16.6699 12.4658Z" fill="white" stroke="white" stroke-width="0.190938"/>
<path d="M9.27234 4.49951C6.59542 4.49951 4.41797 6.6775 4.41797 9.35388C4.41797 12.0303 6.59542 14.2082 9.27234 14.2082C11.9493 14.2082 14.1267 12.0303 14.1267 9.35388C14.1267 6.6775 11.9493 4.49951 9.27234 4.49951ZM9.27234 13.1295C7.19089 13.1295 5.49672 11.4359 5.49672 9.35388C5.49672 7.27189 7.19089 5.57826 9.27234 5.57826C11.3538 5.57826 13.048 7.27189 13.048 9.35388C13.048 11.4359 11.3538 13.1295 9.27234 13.1295Z" fill="white" stroke="white" stroke-width="0.190938"/>
</svg>
