<svg width="1140" height="562" viewBox="0 0 1140 562" fill="none" xmlns="http://www.w3.org/2000/svg">
<path d="M991.355 151.44L996.577 156.045L999.729 153.743L995.11 151.797L999.002 150.824L1005.55 153.743L1005.68 150.591L1010.17 148.151L1006.53 144.15L993.658 139.532H991.355L995.933 147.795H992.685L991.355 151.44Z" fill="#1E59A4" stroke="white" stroke-width="0.6" stroke-miterlimit="10"/>
<path d="M1009.05 164.432L1000.76 155.565L997.18 157.388V162.116H1000.76V169.406L995.371 174.792L993.905 173.654V180.095L990.862 179.355L983.572 180.095L978.844 185.549V187.618L976.049 190.414L984.065 198.431L986.066 196.416V191.017L981.393 188.098L989.163 184.466H994.028V187.125L996.878 189.989L1002.22 184.645H1006.9V181.671H1010.17V178.149L1009.05 177.025V164.432Z" fill="#1E59A4" stroke="white" stroke-width="0.6" stroke-miterlimit="10"/>
<path d="M987.286 186.632V187.536H989.108V186.043H991.342L993.165 187.865L991.342 189.688H989.465V192.1H987.642L986.052 188.811V186.865L987.286 186.632Z" fill="#1E59A4" stroke="white" stroke-width="0.6" stroke-miterlimit="10"/>
<path d="M813.111 289.122V300.784L815.29 305.155L820.758 302.236V297.865L815.167 289.122H813.111Z" fill="#1E59A4" stroke="white" stroke-width="0.6" stroke-miterlimit="10"/>
<path d="M967.648 273.103L974.171 278.022L976.35 274.185L970.704 269.635L966.703 270.554L964.154 266.717V262.537H966.333L967.607 257.987L965.428 252.821L958.933 251.793V261.619H957.055L961.605 271.828L967.648 273.103Z" fill="#1E59A4" stroke="white" stroke-width="0.6" stroke-miterlimit="10"/>
<path d="M963.674 278.022H965.25V273.952L961.002 272.856L963.674 278.022Z" fill="#1E59A4" stroke="white" stroke-width="0.6" stroke-miterlimit="10"/>
<path d="M969.498 288.999L973.267 292.644L978.365 288.52L974.897 283.244L973.143 284.998L968.155 280.023V285.847H972.047V288.999H969.498Z" fill="#1E59A4" stroke="white" stroke-width="0.6" stroke-miterlimit="10"/>
<path d="M978.173 280.325L976.35 282.147L980.31 287.067L982.969 283.792L981.27 282.079V279.173L979.57 277.228L976.35 278.022L978.173 280.325Z" fill="#1E59A4" stroke="white" stroke-width="0.6" stroke-miterlimit="10"/>
<path d="M986.614 298.235L982.969 287.793L980.544 288.396L981.489 291.767L978.365 294.892H972.595L967.552 299.935H968.895L971.198 297.632H976.871V302.333L980.544 306.005H981.996V299.208H985.408V302.84L986.614 298.235Z" fill="#1E59A4" stroke="white" stroke-width="0.6" stroke-miterlimit="10"/>
<path d="M951.889 295.81L961.783 285.916L959.659 283.792L951.286 294.343L951.889 295.81Z" fill="#1E59A4" stroke="white" stroke-width="0.6" stroke-miterlimit="10"/>
<path d="M1071.8 523.525L1078.35 525.347L1112.95 506.587V502.585H1109.5L1109.3 500.037L1071.8 523.525Z" fill="#1E59A4" stroke="white" stroke-width="0.6" stroke-miterlimit="10"/>
<path d="M1115.87 502.764L1117.87 504.586L1139 489.101L1137.18 487.47L1132.26 489.101L1128.8 487.47L1130.81 484.373L1128.98 477.631L1125.34 475.877V485.456L1116.24 494.569L1119.14 498.214L1115.87 502.764Z" fill="#1E59A4" stroke="white" stroke-width="0.6" stroke-miterlimit="10"/>
<path d="M1000.82 380.198L1002.65 378.731V376.785H997.783L998.454 377.827L1000.82 380.198Z" fill="#1E59A4" stroke="white" stroke-width="0.6" stroke-miterlimit="10"/>
<path d="M1064.15 429.737V423.364H1061.59V414.073L1053.04 405.508V391.846H1047.02V380.376H1044.65V374.182H1041.74L1037.98 387.296V392.572L1034.1 404.604H1030.45L1016.89 391.024L1023.53 381.65L1021.52 378.923L1018.43 380.732L1006.59 377.827L1006.53 382.02H999.729L993.302 388.447V392.695H988.738L984.339 388.296L965.73 401.438V406.783L931.731 422.323L927.853 432.286L930.525 438.356L926.633 441.755V467.491L924.29 469.834V474.288L927.414 477.398H935.856L942.146 471.108H954.561L957.809 467.874L985.285 462.886L994.151 466.285V477.398L995.672 475.877L1005.24 466.326L1006.53 468.34L998.948 477.398L1000.4 478.549L1004.77 475.082L1002.4 480.002H1006.53V490.239L1015.15 493.117L1020.44 490.239L1023.89 493.117L1039.2 487.471L1043.75 480.358L1058.68 466.888L1069.07 448.675V434.643L1064.15 429.737Z" fill="#1E59A4" stroke="white" stroke-width="0.6" stroke-miterlimit="10"/>
<path d="M1019.39 503.244L1014.6 500.216L1012.05 502.764V507.78L1010.87 508.684V512.782H1015.06L1017.56 510.288H1019.06L1026.83 502.518L1024.98 501.12L1019.39 503.244Z" fill="#1E59A4" stroke="white" stroke-width="0.6" stroke-miterlimit="10"/>
<path d="M1079.44 350.145H1078.17L1076.52 352.461H1066.33L1067.23 355.517H1071.15L1072.7 357.065L1078.99 353.598H1081.81V347.87H1079.44V350.145Z" fill="#1E59A4" stroke="white" stroke-width="0.6" stroke-miterlimit="10"/>
<path d="M1076.98 341.402L1083.91 346.678V349.679H1085.54V346.047L1076.98 340.031V341.402Z" fill="#1E59A4" stroke="white" stroke-width="0.6" stroke-miterlimit="10"/>
<path d="M1090.01 351.776L1093.38 359.34H1095.48V356.243L1091.37 351.323L1090.01 351.776Z" fill="#1E59A4" stroke="white" stroke-width="0.6" stroke-miterlimit="10"/>
<path d="M1096.97 356.928L1096.83 358.696L1100.2 361.436H1102.58V360.614H1100.66L1096.97 356.928Z" fill="#1E59A4" stroke="white" stroke-width="0.6" stroke-miterlimit="10"/>
<path d="M1109.3 366.082V363.753L1105.95 361.437H1103.93V362.711H1106.22L1107.95 366.082H1109.3Z" fill="#1E59A4" stroke="white" stroke-width="0.6" stroke-miterlimit="10"/>
<path d="M1096.83 364.438L1100.48 367.439H1102.58V365.712L1096.83 362.067V364.438Z" fill="#1E59A4" stroke="white" stroke-width="0.6" stroke-miterlimit="10"/>
<path d="M1107.58 370.81H1112.04V369.44L1107.58 368.083V370.81Z" fill="#1E59A4" stroke="white" stroke-width="0.6" stroke-miterlimit="10"/>
<path d="M1070.03 369.864V368.056H1067L1061.41 358.34H1065.66L1064.45 354.941L1058.13 352.502L1057.28 348.624L1054.24 346.678H1053.16L1041.37 341.251V369.097L1045.87 369.631L1049.88 362.588L1058.26 364.41L1063.85 373.51H1070.15L1073.55 375.702L1074.65 373.153L1071.73 369.864H1070.03Z" fill="#1E59A4" stroke="white" stroke-width="0.6" stroke-miterlimit="10"/>
<path d="M674.744 155.743L677.115 157.196H679.362V156.62L678.403 155.661L678.047 153.4L672.976 151.125H669.153L658.341 147.055L656.559 147.453C658.971 149.864 661.41 152.304 661.506 152.4C661.684 152.578 661.506 154.222 661.506 154.222L660.054 155.675H665.33L667.152 157.497H672.921L674.744 155.743Z" fill="#1E59A4" stroke="white" stroke-width="0.6" stroke-miterlimit="10"/>
<path d="M674.36 163.637L674.977 162.869L678.307 164.952L678.663 166.679L680.692 166.555L680.267 163.582L677.115 162.362L678.019 161.266L674.073 157.511H672.922H667.166L667.824 158.169L671.524 165.843L673.963 163.088L674.36 163.637Z" fill="#1E59A4" stroke="white" stroke-width="0.6" stroke-miterlimit="10"/>
<path d="M674.977 162.869L674.361 163.637L676.69 166.789L678.664 166.679L678.307 164.952L674.977 162.869Z" fill="#1E59A4" stroke="white" stroke-width="0.6" stroke-miterlimit="10"/>
<path d="M685.447 154.387L682.884 157.265L679.719 154.168L678.047 153.414L678.403 155.675L679.362 156.62V157.21H677.115L674.744 155.743L672.922 157.511H674.073L678.019 161.266L677.115 162.362L680.267 163.582L680.664 166.295L683.981 163.212L686.16 163.76L685.762 167.186L688.16 168.337V166.131L689.681 164.61V161.636L691.901 160.416L685.447 154.387Z" fill="#1E59A4" stroke="white" stroke-width="0.6" stroke-miterlimit="10"/>
<path d="M708.318 251.272H698.027L690.75 258.563L689.257 257.069L676.389 256.096V259.494L674.607 261.194L674.689 261.317L679.061 276.501L709.771 264.113V261.317L713.033 259.508L708.962 250.943L708.318 251.272Z" fill="#1E59A4" stroke="white" stroke-width="0.6" stroke-miterlimit="10"/>
<path d="M720.186 225.468H722.995L721.186 221.138L713.663 229.511H706.838L709.168 233.882L718.391 234.608L718.418 234.622L720.186 229.209V225.468Z" fill="#1E59A4" stroke="white" stroke-width="0.6" stroke-miterlimit="10"/>
<path d="M736.247 235.335L731.396 230.36L723.982 227.812L722.995 225.468H720.186V229.209L718.418 234.622L720.953 237.281L719.007 245.901L708.962 250.944L713.032 259.508L729.45 250.395L736.247 235.335Z" fill="#1E59A4" stroke="white" stroke-width="0.6" stroke-miterlimit="10"/>
<path d="M704.55 226.825V219.548H702.494L701.001 223.508L703.029 227.565L704.55 226.825Z" fill="#1E59A4" stroke="white" stroke-width="0.6" stroke-miterlimit="10"/>
<path d="M685.406 207.9L678.663 207.352L662.904 194.963H657.984L651.612 197.965L654.079 200.787L653.161 203.802H650.529L648.433 207.9L643.28 206.42L642.266 212.504H645.665L674.607 261.194L676.389 259.494V256.096L689.256 257.069L690.75 258.563L698.027 251.272H708.318L719.007 245.9L720.953 237.281L718.39 234.608L709.168 233.882L706.838 229.511H706.372L704.55 227.688V226.825L703.029 227.565L701 223.508L700.795 224.043L692.531 210.325V204.46L687.132 203.61L685.406 207.9Z" fill="#1E59A4" stroke="white" stroke-width="0.6" stroke-miterlimit="10"/>
<path d="M647.296 188.865V186.728H648.2V185.535L645.144 183.452V184.768L642.938 191.168H644.993L647.296 188.865Z" fill="#1E59A4" stroke="white" stroke-width="0.6" stroke-miterlimit="10"/>
<path d="M645.144 191.003L644.993 191.167H642.938L640.142 199.239H640.046L643.363 205.954L643.28 206.42L643.788 206.557L645.144 199.376V191.003Z" fill="#1E59A4" stroke="white" stroke-width="0.6" stroke-miterlimit="10"/>
<path d="M648.556 194.388H650.16L663.63 185.371V179.67V178.423V176.573H665.275L667.947 173.901H666.919H660.849L658.423 176.326H647.241L645.144 178.423V183.452L648.2 185.535V186.727H647.296V188.865L645.144 191.003V192.236H646.391L648.556 194.388Z" fill="#1E59A4" stroke="white" stroke-width="0.6" stroke-miterlimit="10"/>
<path d="M690.051 199.636H688.955V195.457L687.064 193.566H685.68L683.789 191.688H681.637V190.263L678.691 187.317V184.59L680.267 183H681.555V182.452L680.692 181.602V178.82H678.266L675.128 173.901H673.47H672.25H667.947L665.275 176.573H663.631V178.423V179.67V185.371L656.162 190.373L658.094 194.963H662.904L678.664 207.352L685.406 207.9L687.132 203.61L692.532 204.46V204.391L690.051 202.007V199.636Z" fill="#1E59A4" stroke="white" stroke-width="0.6" stroke-miterlimit="10"/>
<path d="M743.167 217.849H746.566V214.821H743.647V209.956H741.714L735.452 203.707L738.439 200.733V197.705H735.644L733.698 189.688L732.725 188.715V176.327H730.299L721.556 171.476H717.911V169.776H710.018V173.175H706.688V174.504L700.425 176.327L693.505 172.681H690.229L688.16 168.803V168.557V168.337L685.762 167.186L686.159 163.76L683.981 163.212L680.664 166.296L680.692 166.556L678.663 166.679L676.69 166.789L674.36 163.637L673.963 163.089L671.524 165.843L675.416 173.901H675.128L678.266 178.821H680.692V181.603L681.555 182.452V183H680.267L678.691 184.59V187.317L681.637 190.263V191.689H683.789L685.68 193.566H687.064L688.955 195.457V199.637H690.051V202.008L692.532 204.392V203.227H697.575L703.399 212.929L706.592 213.176L712.813 218.466H720.09V216.396H724.708V219.918L740.865 223.029V220.165L743.167 217.849Z" fill="#1E59A4" stroke="white" stroke-width="0.6" stroke-miterlimit="10"/>
<path d="M803.97 126.925V123.69L802.299 123.307H796.899L790.157 116.565L784.086 117.661L781.414 115.167L778.865 117.291L762.654 104.176V101.449L757.487 106.616H754.212V103.464H745.593L742.797 98.7222L736.123 98.5989L715.362 103.943L714.033 105.396L715.485 108.315L713.909 112.933L719.007 114.756V118.223H711.539L709.415 116.099H703.59L701.412 118.291L690.723 113.673H685.255L677.855 117.675L680.157 119.977L678.759 121.375L675.183 117.798L672.99 119.99V127.637H675.416V130.858H678.869L684.337 136.325L685.063 135.599L690.106 132.995H696.656L698.904 135.243V139.436H692.038L688.886 142.588V144.164H691.065L695.807 148.905H698.904V152.057L699.808 155.099L700.535 152.674H702.96L703.056 152.879L704.783 152.194L707.455 154.14L709.031 156.689H710.853L707.578 141.272L716.445 138.97L718.445 140.066L717.349 137.449L718.445 135.078L720.816 135.983L724.283 141.629L723.571 142.876L725.914 144.178L729.559 147.823H739.878L743.153 151.098V153.291H746.552V157.182H752.02V159.978H755.185L761.009 152.085V150.385H768.546V148.809H771.219L772.877 150.468H786.649L791.993 152.098L792.966 148.22L787.869 141.3L792.24 139.724L796.009 140.478V138.998L794.433 137.422V132.447H802.929V130.748L801.353 129.158V127.007H803.97V126.925ZM782.017 134.119H770.355L767.381 137.093L767.628 141.218L764.353 139.395V135.023L767.025 132.351H782.017V134.119Z" fill="#1E59A4" stroke="white" stroke-width="0.6" stroke-miterlimit="10"/>
<path d="M739.823 181.37V179.3L744.812 177.3V172.86H750.279V169.16H746.566L739.015 165.364L730.299 156.662H723.886V154.318L720.282 150.701H717.363V152.948H715.184V156.662L710.799 156.292L710.867 156.662H709.045L707.469 154.113L704.797 152.167L703.07 152.852L704.07 155.072L706.619 157.018L706.126 158.964H700.672V162.239H703.097L706.688 165.816V173.175H710.018V169.776H717.911V171.476H721.556L730.299 176.327H732.725V179.712L737.275 181.37H739.823Z" fill="#1E59A4" stroke="white" stroke-width="0.6" stroke-miterlimit="10"/>
<path d="M756.432 170.009L751.965 165.007V163.089H755.528L760.077 157.895L761.982 158.964L760.9 159.937L762.53 161.335H766.6L769.273 158.662L763.928 155.497V157.086L759.557 155.497L761.749 153.071L760.694 152.482L755.185 159.937H752.033V157.141H746.566V153.249H743.167V151.07L739.892 147.795H729.573L725.928 144.15L723.571 142.848L721.912 145.795L718.281 144.904L719.185 141.779L718.459 140.039L716.458 138.929L707.592 141.231L710.799 156.292L715.184 156.662V152.948H717.363V150.7H720.282L723.886 154.318V156.662H730.299L739.015 165.364L746.566 169.159H750.279V172.119L754.527 173.476L756.432 170.009Z" fill="#1E59A4" stroke="white" stroke-width="0.6" stroke-miterlimit="10"/>
<path d="M502.639 103.258H501.268L500.268 104.258L498.377 102.984L501.94 99.7085H497.596V102.079L496.075 103.6H491.456V106.382L493.169 108.095L487.606 113.645L489.757 115.797H495.28L499.117 111.973H502.872L504.269 107.753V105.108L505.119 104.258H502.639V103.258Z" fill="#1E59A4" stroke="white" stroke-width="0.6" stroke-miterlimit="10"/>
<path d="M505.119 104.258L507.613 101.778L505.544 99.7085H501.94L498.377 102.984L500.268 104.258L501.268 103.258H502.639V104.258H505.119Z" fill="#1E59A4" stroke="white" stroke-width="0.6" stroke-miterlimit="10"/>
<path d="M528.868 110.52L528.004 107.752L526.675 109.178H523.523L524.976 106.999L522.057 101.558H520.933L518.508 99.1327L515.808 96.433V94.7886L518.905 91.6915V90.5952H512.341L515.013 87.9367V86.5938H511.491L508.586 89.5126H505.914V93.1578L504.818 94.2404V97.036H504.091L505.297 98.2556L506.037 97.5156V99.0367H507.435L508.942 97.5156L509.737 98.3104L508.161 99.8864L509.189 100.928H513.081L513.561 104.559V107.752H508.463L508.942 109.671V112.343H506.764V113.796H508.819L511.135 114.522L514.41 113.796L512.588 115.591H509.217L504.091 120.716H505.667L509.861 119.195L511.491 117.564H513.684L514.904 118.77L524.852 117.441L527.045 115.125H525.222L528.868 110.52Z" fill="#1E59A4" stroke="white" stroke-width="0.6" stroke-miterlimit="10"/>
<path d="M502.995 90.2392L505.667 88.0466L502.145 87.4436V89.2662L500.926 89.6362L502.145 92.7881L502.995 90.2392Z" fill="#1E59A4" stroke="white" stroke-width="0.6" stroke-miterlimit="10"/>
<path d="M517.562 83.5654H515.26V85.3743H516.411L517.562 83.5654Z" fill="#1E59A4" stroke="white" stroke-width="0.6" stroke-miterlimit="10"/>
<path d="M556.056 16.0474L570.87 22.8445L577.913 16.0474L584.957 20.7889L589.082 17.5137L580.832 14.1014H594.18V10.9496L578.886 9.74365L556.056 11.6759V16.0474Z" fill="#1E59A4" stroke="white" stroke-width="0.6" stroke-miterlimit="10"/>
<path d="M584.861 47.3467H582.586L570.39 55.9115V57.8164H568.115V60.3653L565.47 63.0101L566.567 64.0104V65.7097H562.25V79.6738L560.427 84.4153L558.714 85.402L563.346 93.7613L562.62 96.0635L558.605 97.5161V100.558L562.373 100.312V99.1058H563.593H568.321V96.1869H573.542L576.31 87.7865L581.011 83.0724V82.2913L576.214 77.495V71.7805L585.259 66.2579L587.506 64.0104L586.053 62.6812L589.205 59.5156H591.878V51.17L584.861 47.3467Z" fill="#1E59A4" stroke="white" stroke-width="0.6" stroke-miterlimit="10"/>
<path d="M544.833 132.064V130.364L546.71 130.063L548.711 125.266L538.515 121.073L537.241 121.813L530.485 115.756L527.648 117.565V119.991L522.674 121.566V123.636L518.782 123.512V121.566L515.863 122.169L516.959 123.745V125.938L513.191 126.294L512.231 124.965L506.764 126.541L507.613 129.583L513.807 131.282L513.931 132.612L517.685 136.38L515.794 146.987L522.756 150.893L524.03 149.55L531.225 151.139V149.426L534.87 147.247L540.694 149.152H543.435L547.628 146.014L544.531 144.328V136.079H541.941V134.955L544.833 132.064Z" fill="#1E59A4" stroke="white" stroke-width="0.6" stroke-miterlimit="10"/>
<path d="M552.356 149.549V150.769H550.109V153.989L551.232 156.113H552.356V153.921H553.452V149.549H552.356Z" fill="#1E59A4" stroke="white" stroke-width="0.6" stroke-miterlimit="10"/>
<path d="M495.937 169.9L494.951 168.927V167.46L496.499 166.679L494.951 163.212H497.897V158.114L499.596 156.415V154.414H493.526V153.386H490.977V158.964L487.455 166.981L489.031 168.557V174.751L493.772 173.284H494.279V171.558L495.937 169.9Z" fill="#1E59A4" stroke="white" stroke-width="0.6" stroke-miterlimit="10"/>
<path d="M524.03 149.549L522.756 150.892L515.794 146.987L515.63 147.919L512.464 147.179H498.391L495.376 146.247L493.279 148.343H490.799L489.524 149.618L490.977 151.071V153.386H493.526V154.414H499.596V156.415L497.897 158.114V163.212H494.951L496.499 166.679L494.951 167.46V168.927L495.938 169.899L494.279 171.558V173.284H496.198L497.897 174.984V177.053L500.569 178.752L504.818 174.97H512.053L519.302 167.734V163.267L523.304 159.087V157.717L531.225 154.168V151.139L524.03 149.549Z" fill="#1E59A4" stroke="white" stroke-width="0.6" stroke-miterlimit="10"/>
<path d="M597.4 43.6742H602.197L606.088 45.1953L606.733 46.2094L610.94 44.3868V42.2764L596.605 40.5771L579.736 43.8523L571.473 48.1005V46.5246L567.348 49.3202H562.62V50.5398H567.595L567.553 51.7046L561.798 57.4602V60.5161L553.809 68.5054H551.685V67.2858L540.639 72.3973V84.8951L547.56 89.2666L556.056 84.7718H558.358L558.715 85.4021L560.428 84.4155L562.25 79.674V65.7098H566.567V64.0106L565.471 63.0102L568.115 60.3654V57.8165H570.39V55.9117L582.587 47.3468H584.861L586.931 48.4705H597.4V43.6742Z" fill="#1E59A4" stroke="white" stroke-width="0.6" stroke-miterlimit="10"/>
<path d="M612.885 67.5323V65.2301L611.186 63.5308V59.269L607.541 55.2675L609.788 51.3893L605.718 50.1697V46.6478L606.732 46.2093L606.088 45.1952L602.197 43.6741H597.4V48.4704H586.931L591.878 51.17V59.5156H596.208V62.1467L588.753 69.6016V76.426L593.824 81.4964L606.938 78.8242L608.569 77.6731L609.117 78.2213L616.161 72.4794V70.8075L612.885 67.5323Z" fill="#1E59A4" stroke="white" stroke-width="0.6" stroke-miterlimit="10"/>
<path d="M551.438 157.018L550.108 158.292H548.039V159.512L549.478 160.937V166.062H551.438V165.336H553.452V160.663L554.329 159.786L553.452 157.018H551.438Z" fill="#1E59A4" stroke="white" stroke-width="0.6" stroke-miterlimit="10"/>
<path d="M583.134 162.732L584.135 160.718L575.296 156.086L576.666 154.716L575.94 153.893L572.021 154.071L568.471 151.249L567.019 147.151L562.551 143.602L563.196 141.505L562.099 139.326L566.251 137.983V136.078L561.702 133.105L556.426 133.763L555.206 135.955L552.657 135.708L551.191 137.106L549.656 135.708L548.039 137.325H544.531V144.328L547.628 146.014L550.711 143.698L555.083 145.603L556.083 150.07L565.196 157.36L566.841 157.264L573.021 162.184L574.213 161.91L575.488 166.09L574.117 168.556L567.197 169.283L566.293 170.201L564.47 169.735L563.1 171.379L572.295 176.203L573.391 174.38L572.213 172.558L573.843 169.927L575.762 170.653L579.585 166.638V164.281L576.844 163.006L578.667 160.266L583.134 162.732Z" fill="#1E59A4" stroke="white" stroke-width="0.6" stroke-miterlimit="10"/>
<path d="M555.206 130.487H547.436L546.765 129.926L546.71 130.063L544.833 130.364V132.063L541.941 134.955V136.079H544.531V137.326H548.039L549.656 135.709L551.191 137.106L552.657 135.709L555.206 135.955L556.261 134.064L553.151 132.433L555.206 130.487Z" fill="#1E59A4" stroke="white" stroke-width="0.6" stroke-miterlimit="10"/>
<path d="M541.941 116.372L538.83 114.865L532.403 114.522L530.485 115.756L537.241 121.813L538.515 121.073L540.913 122.06L543.339 119.607L541.941 116.372Z" fill="#1E59A4" stroke="white" stroke-width="0.6" stroke-miterlimit="10"/>
<path d="M542.969 114.057H541.694V113.166H544.093L545.436 111.823V110.905H544.202V110.041H545.888V108.041L545.216 106.876H541.366L537.72 108.931V111.124L532.403 114.522L538.83 114.865L541.941 116.372L541.996 116.482L542.969 115.331V114.057Z" fill="#1E59A4" stroke="white" stroke-width="0.6" stroke-miterlimit="10"/>
<path d="M554.028 99.0649L557.577 95.5156L556.727 94.666L555.206 93.1585L556.549 91.8156V90.3904H554.754L552.781 92.3637H550.903L548.779 94.4878V99.2293L551.109 101.559L554.028 100.586V99.0649Z" fill="#1E59A4" stroke="white" stroke-width="0.6" stroke-miterlimit="10"/>
<path d="M569.349 113.221V110.096L568.047 108.781L568.266 104.67L565.402 101.806H562.291L560.194 103.916H556.892L555.316 102.34L554.028 101.052V100.586L551.109 101.559L551.561 102.011V105.656H550.355V106.876H548.409V105.656H545.381V106.876H545.216L545.888 108.041V110.042H544.202V110.905H545.435V111.823L544.092 113.166H541.694V114.057H542.969V115.331L541.996 116.482L543.339 119.607L540.913 122.06L548.711 125.266L546.765 129.926L547.436 130.488H552.603H555.206L554.795 130.885L563.648 129.926L564.333 127.665L567.567 125.842L561.647 122.841V119.113L568.567 116.482H570.664V114.523L569.349 113.221Z" fill="#1E59A4" stroke="white" stroke-width="0.6" stroke-miterlimit="10"/>
<path d="M582.765 119.922V122.745L582.545 122.978H592.741L594.426 124.663H595.29V122.251L598.154 119.374H599.935V117.51L598.154 115.728V112.275H596.249V110H598.524V107.725L596.975 106.177V102.628H594.303H586.054L585.437 103.231H581.435V101.901H574.995L568.43 104.834L568.266 104.67L568.047 108.781L569.349 110.096V113.221L570.664 114.523V116.085L577.311 119.922H582.765Z" fill="#1E59A4" stroke="white" stroke-width="0.6" stroke-miterlimit="10"/>
<path d="M602.498 88.7183L604.567 90.7876H607.418V90.2942L608.761 89.3898L606.746 85.6212L608.336 84.3468L608.281 82.9353L608.021 83.0723H597.469L593.097 85.7446L590.658 87.0876L591.631 88.4168L594.303 87.8139L595.029 86.4709L596.496 87.9372H598.318V89.6227L600.497 88.7183H602.498Z" fill="#1E59A4" stroke="white" stroke-width="0.6" stroke-miterlimit="10"/>
<path d="M570.664 125.02H573.117L577.42 126.39L578.722 126.801L582.545 122.978H582.477H582.545L582.764 122.745V119.922H577.31L570.664 116.085V116.482H568.567L561.647 119.114V122.841L567.567 125.842L566.594 126.39H570.664V125.02Z" fill="#1E59A4" stroke="white" stroke-width="0.6" stroke-miterlimit="10"/>
<path d="M594.728 100.86H591.878L591.206 99.887H590L588.383 100.284L586.053 102.628H594.303L594.728 100.86Z" fill="#1E59A4" stroke="white" stroke-width="0.6" stroke-miterlimit="10"/>
<path d="M572.446 137.654H573.542V136.38L575.214 134.708L575.406 133.324L573.939 134.804H567.046L565.827 135.791L566.252 136.078V137.983L567.197 137.682L567.375 138.984H572.446V137.654Z" fill="#1E59A4" stroke="white" stroke-width="0.6" stroke-miterlimit="10"/>
<path d="M573.939 134.804L575.406 133.324L575.803 132.927L578.27 128.733L577.42 126.39L573.117 125.02H570.664V126.39H566.594L564.333 127.664L563.648 129.925L554.795 130.885L553.151 132.433L556.262 134.064L556.426 133.763L561.702 133.105L565.827 135.791L567.046 134.804H573.939Z" fill="#1E59A4" stroke="white" stroke-width="0.6" stroke-miterlimit="10"/>
<path d="M573.706 142.314L577.064 140.505L584.834 140.93V137.325H583.08V138.257H580.339L575.214 134.708L573.542 136.38V137.654H572.446V138.984H567.375V139.052L566.197 140.505L569.472 143.15L570.294 141.053L571.473 145.15L583.45 151.797L577.667 146.274L573.706 142.314Z" fill="#1E59A4" stroke="white" stroke-width="0.6" stroke-miterlimit="10"/>
<path d="M591.878 95.0631H600.525L601.717 96.2416H603.169L605.088 98.1601H606.129H608.541L610.72 95.8716L609.487 93.3912V91.692H607.418V90.7875H604.567L602.498 88.7183H600.497L598.318 89.6227V93.7475H595.646L593.097 91.1987H590.315L588.109 93.3912V97.0365L588.602 97.7902L588.959 95.9265L591.878 95.0631Z" fill="#1E59A4" stroke="white" stroke-width="0.6" stroke-miterlimit="10"/>
<path d="M602.443 103.984L603.169 104.464L604.17 103.587L603.485 102.847L604.17 100.558L606.582 99.887L606.129 98.1603H605.088L603.169 96.2418H601.717L600.525 95.0632H591.877L588.959 95.9266L588.602 97.7903L588.685 97.9136L589.507 99.1607L588.383 100.284L590 99.887H591.206L591.877 100.86H594.728L594.303 102.628H596.975V104.944H599.702L602.443 103.984Z" fill="#1E59A4" stroke="white" stroke-width="0.6" stroke-miterlimit="10"/>
<path d="M600.991 113.097H604.896L605.403 113.604H608.665L609.268 114.207H613.886L614.557 114.865H619.381V115.879H620.148V113.687L621.587 112.453H621.56V107.849H625.753V105.533L619.312 101.285V97.9548L610.939 96.3104L610.72 95.8718L608.541 98.1604H606.129L606.582 99.887L604.17 100.559L603.485 102.847L604.17 103.587L603.169 104.464L602.443 103.984L599.702 104.944H596.975V106.177L598.524 107.726V110H596.249V112.275H598.154V114.591H599.497L600.991 113.097Z" fill="#1E59A4" stroke="white" stroke-width="0.6" stroke-miterlimit="10"/>
<path d="M622.903 137.161L623.026 137.051V134.804H625.328H627.754V136.503H633.098L632.975 137.353L629.028 139.107V139.957H631.454V140.628H633.126V142.78L634.62 144.273L638.744 142.026V140.751H642.814V139.422L638.525 139.367L636.675 137.531V136.435L639.717 133.708H642.39L647.487 132.488V128.432H652.106V120.854H645.226L643.363 118.99H637.196L630.673 112.453H621.587L620.148 113.686V115.879H619.381V114.865H614.557L613.886 114.207H609.268L608.665 113.604H605.403L604.896 113.097H600.991L599.497 114.591H598.154V115.728L599.935 117.51V119.374H598.154L595.29 122.251V124.663H594.536L594.193 127.212L597.153 129.172H602.306L603.622 130.309H604.814L605.609 129.514H607.774L610.09 127.185H612.817L617.805 129.281V131.282L620.381 133.858V134.804H617.188V137.709L615.407 139.354L616.709 140.601L618.12 139.477L619.559 139.381V138.23H620.834L621.628 136.339" fill="#1E59A4"/>
<path d="M622.903 137.161L623.026 137.051V134.804H625.328H627.754V136.503H633.098L632.975 137.353L629.028 139.107V139.957H631.454V140.628H633.126V142.78L634.62 144.273L638.744 142.026V140.751H642.814V139.422L638.525 139.367L636.675 137.531V136.435L639.717 133.708H642.39L647.487 132.488V128.432H652.106V120.854H645.226L643.363 118.99H637.196L630.673 112.453H621.587L620.148 113.686V115.879H619.381V114.865H614.557L613.886 114.207H609.268L608.665 113.604H605.403L604.896 113.097H600.991L599.497 114.591H598.154V115.728L599.935 117.51V119.374H598.154L595.29 122.251V124.663H594.536L594.193 127.212L597.153 129.172H602.306L603.622 130.309H604.814L605.609 129.514H607.774L610.09 127.185H612.817L617.805 129.281V131.282L620.381 133.858V134.804H617.188V137.709L615.407 139.354L616.709 140.601L618.12 139.477L619.559 139.381V138.23H620.834L621.628 136.339" stroke="white" stroke-width="0.6" stroke-miterlimit="10"/>
<path d="M615.01 133.763L614.42 139.011L615.462 139.313L617.188 137.709V134.804H620.381V133.859L617.805 131.282V129.281L612.817 127.185H610.09L609.35 127.925L610.994 130.213L615.01 133.763Z" fill="#1E59A4" stroke="white" stroke-width="0.6" stroke-miterlimit="10"/>
<path d="M583.683 129.898V128.582H590.644L591.905 127.322H594.372L594.193 127.212L594.536 124.663H594.426L592.741 122.978H582.545L578.722 126.801L577.42 126.39L578.27 128.733L578.201 128.87L579.942 129.898H583.683Z" fill="#1E59A4" stroke="white" stroke-width="0.6" stroke-miterlimit="10"/>
<path d="M595.043 130.405V132.502L591.384 136.161H588.959V136.832L589.973 138.532L594.194 142.752H597.661V144.986V145.109L599.524 146.987H608.377L610.46 144.904L614.873 145.301L617.504 147.247H617.558V142.149H620.409V139.655L622.903 137.161L621.628 136.339L620.834 138.23H619.559V139.381L618.12 139.477L616.709 140.601L615.407 139.354L615.462 139.313L614.42 139.011L615.01 133.763L610.994 130.213L609.35 127.925L607.774 129.514H605.609L604.814 130.309H603.622L602.306 129.172H597.154L597.085 129.117L596.427 130.405H595.043Z" fill="#1E59A4" stroke="white" stroke-width="0.6" stroke-miterlimit="10"/>
<path d="M588.959 136.161H591.384L595.043 132.502V130.405H596.427L597.085 129.117L594.372 127.322H591.905L590.644 128.583H583.683V129.898H579.942L578.201 128.87L575.803 132.927L575.406 133.324L575.214 134.708L580.339 138.257H583.08V137.326H584.834V137.408L586.574 136.161H588.959Z" fill="#1E59A4" stroke="white" stroke-width="0.6" stroke-miterlimit="10"/>
<path d="M585.039 147.288H586.574V144.972L585.382 143.78L586.232 142.916V141.423L584.834 140.71V140.929L577.064 140.505L573.706 142.314L577.667 146.274L579.243 148.247L580.147 149.111L580.764 149.7L583.45 151.797L583.231 149.426L585.039 147.288Z" fill="#1E59A4" stroke="white" stroke-width="0.6" stroke-miterlimit="10"/>
<path d="M590.795 153.332L589.233 151.769H587.301L585.958 153.126H585.163L586.506 154.167L586.136 161.184L589.507 163.815L589.671 164.062H590.48V161.759H591.439L592.96 160.238V158.799L590.603 157.264L590.795 153.332Z" fill="#1E59A4" stroke="white" stroke-width="0.6" stroke-miterlimit="10"/>
<path d="M596.797 152.249V152.345L591.836 152.797L591.042 153.592L590.795 153.332L590.603 157.265L592.96 158.799V158.786H594.975V157.128H597.332L598.099 156.374H598.798V154.346L596.797 152.249Z" fill="#1E59A4" stroke="white" stroke-width="0.6" stroke-miterlimit="10"/>
<path d="M613.365 153.249L615.01 153.441V147.247H617.504L614.872 145.301L610.46 144.904L608.377 146.987H599.524L597.661 145.109V144.986L597.03 145.301V147.014L598.524 148.521V150.029H596.797V152.249L598.798 154.345V156.374H599.73L600.621 155.469H603.69L604.718 156.511H609.117V154.825H610.2L610.323 154.948L611.035 153.592L613.365 153.249Z" fill="#1E59A4" stroke="white" stroke-width="0.6" stroke-miterlimit="10"/>
<path d="M658.423 176.326L660.849 173.901H666.919H672.25H673.47H675.416L667.824 158.169L665.33 155.689H660.054L657.628 158.114H649.187V156.963H643.664L640.32 153.619H632.797L626.904 156.113V156.963H619.737L615.01 153.441L613.365 153.249L611.035 153.592L610.323 154.949L611.035 155.647V156.867H610.419V158.799L612.817 158.717L614.187 158.265H619.203L620.93 158.895L619.477 160.444L613.091 160.361L609.816 162.088L612.091 167.734L615.736 175.792H620.697L622.478 177.573H626.11V174.476H629.22L632.77 178.026H637.963L640.046 175.929H645.144V178.423L647.241 176.326H658.423Z" fill="#1E59A4" stroke="white" stroke-width="0.6" stroke-miterlimit="10"/>
<path d="M600.799 172.284L597.071 169.653L597.88 168.734L602.717 172.01V169.927L606.719 171.379V170.557L603.718 168.926L603.074 166.912L597.976 160.362L604.54 158.087L609.994 158.813L610.419 158.799V156.867H611.035V155.647L610.2 154.825H609.117V156.511H604.718L603.69 155.469H600.621L599.73 156.374H598.099L597.332 157.127H594.975V158.786H592.96V160.238L591.439 161.759H590.48V164.062H589.671L592.604 168.652L595.071 169.105L593.604 171.187L594.522 173.928L596.249 175.751L596.427 174.559L598.072 176.299L598.894 175.573L599.977 177.656L600.991 176.573L599.702 173.38L600.799 172.284Z" fill="#1E59A4" stroke="white" stroke-width="0.6" stroke-miterlimit="10"/>
<path d="M609.816 181.123H607.609L607.226 180.739H604.814L604.54 180.479L602.018 180.52V182.301H605.294L606.623 183.315H611.542V181.918H609.816V181.123Z" fill="#1E59A4" stroke="white" stroke-width="0.6" stroke-miterlimit="10"/>
<path d="M609.035 173.956H607.089V175.079H609.035V173.956Z" fill="#1E59A4" stroke="white" stroke-width="0.6" stroke-miterlimit="10"/>
<path d="M605.54 175.628H604.54V176.272H605.54V175.628Z" fill="#1E59A4" stroke="white" stroke-width="0.6" stroke-miterlimit="10"/>
<path d="M615.16 179.272H614.091V181.575H615.16V179.272Z" fill="#1E59A4" stroke="white" stroke-width="0.6" stroke-miterlimit="10"/>
<path d="M611.241 171.832H610.062V173.312H611.241V171.832Z" fill="#1E59A4" stroke="white" stroke-width="0.6" stroke-miterlimit="10"/>
<path d="M610.419 167.953H609.268V169.831H610.419V167.953Z" fill="#1E59A4" stroke="white" stroke-width="0.6" stroke-miterlimit="10"/>
<path d="M610.652 174.901H609.638V175.956H610.652V174.901Z" fill="#1E59A4" stroke="white" stroke-width="0.6" stroke-miterlimit="10"/>
<path d="M618.011 177.327H616.435V179.026H618.011V177.327Z" fill="#1E59A4" stroke="white" stroke-width="0.6" stroke-miterlimit="10"/>
<path d="M597.03 147.014V145.301L597.661 144.986V142.752H594.194L589.973 138.531L588.959 136.832V136.161H586.574L584.834 137.408V140.71L586.232 141.423V142.917L585.382 143.78L586.574 144.972V147.288H586.3L589.137 151.769H589.233L591.042 153.592L591.837 152.797L596.797 152.345V150.029H598.524V148.521L597.03 147.014Z" fill="#1E59A4" stroke="white" stroke-width="0.6" stroke-miterlimit="10"/>
<path d="M585.039 147.288L583.23 149.426L583.45 151.797L585.163 153.126H585.958L587.3 151.769H589.137L586.3 147.288H585.039Z" fill="#1E59A4" stroke="white" stroke-width="0.6" stroke-miterlimit="10"/>
<path d="M662.054 36.4522L663.754 39.9741L671.044 41.4267L680.267 42.0296L680.883 40.0974L673.84 35.4792L680.883 27.4625L699.096 22.8444V20.7888H691.805L691.202 21.3918H679.91L668.495 26.7362L662.054 36.4522Z" fill="#1E59A4" stroke="white" stroke-width="0.6" stroke-miterlimit="10"/>
<path d="M741.948 11.0728L753.239 14.8414L765.628 15.4443V12.4021L750.088 7.67432L741.948 11.0728Z" fill="#1E59A4" stroke="white" stroke-width="0.6" stroke-miterlimit="10"/>
<path d="M768.053 13.2656V18.2401H772.068L780.441 16.7738V15.4445L772.918 13.2656H768.053Z" fill="#1E59A4" stroke="white" stroke-width="0.6" stroke-miterlimit="10"/>
<path d="M869.324 23.3376L869.927 26.0099L878.067 28.0791L890.085 26.7362V24.6669L869.324 23.3376Z" fill="#1E59A4" stroke="white" stroke-width="0.6" stroke-miterlimit="10"/>
<path d="M893.854 25.7083V26.9827L906.242 28.079V25.7083H893.854Z" fill="#1E59A4" stroke="white" stroke-width="0.6" stroke-miterlimit="10"/>
<path d="M887.413 29.2852V31.7107L896.649 33.0537V31.8341L887.413 29.2852Z" fill="#1E59A4" stroke="white" stroke-width="0.6" stroke-miterlimit="10"/>
<path d="M998.208 39.7002L1001.13 41.7969L1008.05 40.7417V38.9739L1002.22 38.2339L998.208 39.7002Z" fill="#1E59A4" stroke="white" stroke-width="0.6" stroke-miterlimit="10"/>
<path d="M969.347 102.258L992.342 125.253L991.287 125.842L988.656 123.211H986.011L988.012 129.391L995.933 135.681L994.837 136.133L991.657 134.681L992.014 137.326H990.657L986.916 133.585L985.915 128.309L983.229 125.623L977.542 118.099V116.016L973.171 113.097L972.349 110.37L969.347 107.547L970.526 105.629L968.155 102.902L969.347 102.258Z" fill="#1E59A4" stroke="white" stroke-width="0.6" stroke-miterlimit="10"/>
<path d="M1036.4 60.7352L1039.2 60.1322L1054.49 64.9834L1057.28 63.0374L1052.91 60.3652L1054.98 59.7622L1053.78 57.3367L1042.11 53.4448H1036.17L997.797 44.8251L983.476 43.6055L986.628 46.1544L985.299 47.4837L976.186 44.0166H952.328L949.724 41.4129L931.868 41.0429L918.644 38.2473V36.6714L891.921 34.3692L893.497 39.1107L874.435 37.2881V41.4266L857.676 31.3543H845.164V33.9032L831.2 32.0806L812.618 30.9843L800.106 34.1499V33.3003L811.645 27.3529V25.7769L805.218 22.2551H791.377V20.8024H785.429V19.3499H776.563V22.6251L747.415 27.2432L748.868 31.8614H734.904L738.426 35.7533L737.206 37.0962L732.588 35.8766L727.97 36.9729L723.242 32.4781H721.913L723.735 36.2466L721.31 38.1925L726.901 46.2092L735.52 46.9355L739.522 51.5537L738.439 52.28L734.917 49.0048H730.669L727.394 57.2681L724.119 55.9252L726.668 49.6077L722.42 47.7851L719.268 41.3444L716.965 39.0422V34.0677H706.893V37.9596L705.441 39.4122L705.811 44.1537L714.307 47.9222L713.334 50.7178L703.015 46.3462L684.803 41.6048L684.323 43.674L692.093 47.5659L688.571 50.2381L686.995 46.9629L678.321 49.087L677.17 50.2381H673.895V47.8126L658.711 52.9104V55.3633H653.887L651.914 53.39V51.3892H654.161L651.914 49.1418H647.542V53.5133L649.968 54.7192L648.995 57.7615L643.774 56.3089L638.676 60.0774L640.731 63.4759L630.413 61.2971L629.919 63.243L634.291 64.4626L634.414 66.4085L625.548 64.216L624.451 58.9948L617.778 55.473V54.0204L636.908 59.0633L640.731 55.24L639.402 52.0881L623.739 46.9903L610.981 44.6881V44.4962L605.76 46.7574V50.2792L609.83 51.4989L607.582 55.3907L611.227 59.3922V63.6404L612.927 65.3397V67.6419L616.202 70.9171V72.589L609.158 78.3308L610.981 80.1534H614.256V81.4964H611.337L608.308 83.0586L608.363 84.4701L606.787 85.7445L608.788 89.5131L607.459 90.4312V91.829H609.528V93.5283L610.981 96.4472L619.354 98.0916V101.435L625.794 105.684V107.986H621.601V112.604H630.714L637.237 119.127H643.404L645.267 120.991H652.147V128.569H647.529V132.625L650.804 131.844V133.05L648.378 134.626H646.501V135.475L648.502 136.805L646.802 137.901V139.546L644.98 140.025L649.351 142.793H651.804C651.804 142.793 654.189 145.178 656.6 147.59L658.382 147.192L669.194 151.262H673.018L679.76 154.304L682.912 157.402L685.488 154.524L680.801 150.125V145.877L677.156 144.301V141.752L679.952 138.956H681.898L684.378 136.462L678.91 130.994H675.457V127.774H673.031V120.127L675.224 117.935L678.801 121.511L680.198 120.114L677.896 117.811L685.296 113.81H690.764L701.453 118.428L703.632 116.235H709.456L711.58 118.359H719.048V114.892L713.951 113.07L715.527 108.452L714.074 105.533L715.403 104.08L736.164 98.7357L742.838 98.8591L745.634 103.601H754.253V106.752H757.529L762.695 101.586V104.313L778.906 117.428L781.455 115.304L784.128 117.798L790.198 116.701L796.941 123.444H802.34L807.438 124.595L818.127 117.852H825.773V120.771H837.791V116.948L835.969 115.125V111.302L848.713 115.304L853.016 119.607H858.005L859.608 118.003L870.941 121.676L873.298 123.855H887.44L891.085 120.21L903.337 122.95L906.255 119.894V111.288L903.337 108.369L905.433 106.273H918.644L935.17 122.8H942.872L950.683 130.611H956.356V127.13H963.099V140.601H957.453L963.167 150.125L964.195 149.097H973.061L978.159 127.116L971.732 112.426L967.963 107.684L956.918 102.833V105.862L943.201 101.367L951.217 82.1816H974.171L979.036 83.8808V86.1968L987.286 83.6479V82.072H983.641V73.2056H992.384L997.002 77.8238L1000.52 74.3019L998.454 71.383L1002.22 71.2597L1005.5 76.2341L1002.35 84.7305L1003.92 86.3064L1000.83 94.1313L1023.46 116.77L1027.53 112.7L1025.41 110.576L1028.33 107.657L1024.19 103.532H1027.66V101.655L1024.01 98.0094L1025.77 96.2416L1018.97 88.9512H1014.97L1010.72 80.5782H1015.94L1017.27 81.9075H1019.22V79.5367H1029.23L1036.95 71.8215L1044.35 72.6712L1044.47 71.0952L1030.63 64.2982L1033.18 61.9959L1029.41 59.3237L1031.23 58.3508L1036.4 60.7352ZM865.432 107.904L861.061 111.549V113.371L856.333 115.194L852.687 113.371L857.963 111.727V109.726L859.786 107.904L862.253 105.451V97.7079H863.431L865.432 103.354V107.904Z" fill="#1E59A4" stroke="white" stroke-width="0.6" stroke-miterlimit="10"/>
<path d="M459.403 60.4885L463.775 67.0526L473.491 68.9848L488.784 60.4885L484.18 56.6104L468.64 59.7622L465.967 56.6104L459.403 60.4885Z" fill="#1E59A4" stroke="white" stroke-width="0.6" stroke-miterlimit="10"/>
<path d="M952.739 231.936L957.233 237.76H958.933V224.166L955.781 223.563L952.739 231.936Z" fill="#1E59A4" stroke="white" stroke-width="0.6" stroke-miterlimit="10"/>
<path d="M914.738 248.696V252.821H919.11L921.713 250.217V247.6H916.794L914.738 248.696Z" fill="#1E59A4" stroke="white" stroke-width="0.6" stroke-miterlimit="10"/>
<path d="M948.477 155.565L949.998 154.414L953.711 155.565L953.136 153.633L957.37 151.221V149.494L958.097 148.919L960.193 150.07H963.085L963.126 150.029L957.411 140.505H963.057V127.034H956.315V130.515H950.656L942.844 122.703H935.143L918.616 106.177H905.419L903.323 108.273L906.242 111.179V119.785L903.323 122.841L899.499 121.991V128.665H909.243L917.808 133.858V135.133H905.968V139.408H900.856V142.286H896.992L895.402 140.683H893.401V143.698L896.306 146.247L893.483 147.973V150.248L890.852 151.892H882.562L877.368 155.442L865.432 153.071V151.07H845.534L840.299 144.397L831.68 139.778H822.087V134.804L815.893 129.816L807.52 125.814L807.109 124.416L803.97 123.704V126.938H801.326V129.089L802.902 130.665V132.365H794.405V137.353L795.981 138.929V140.409L792.226 139.655L787.855 141.231L792.953 148.151L791.98 152.043L791.843 152.002L792.158 154.469H790.212H788.581V157.689H782.017V160.718H778.372V159.635L773.822 161.636V164.061L773.192 164.034V166.556L774.699 168.063L775.754 167.021L779.838 168.83L779.29 171.283L780.469 172.75L778.838 174.202H781.661L784.388 176.655V179.026L791.678 181.767L796.05 179.122L800.695 181.027V184.576L799.188 186.083V187.043H796.502L797.598 189.77H799.777L800.695 192.236L798.955 193.785L797.502 192.51L796.05 193.785L798.407 195.786L798.325 197.965L807.876 203.61L810.069 201.432L830.926 213.272L836.394 211.627L837.476 212.271V214.82H838.477L841.217 210.531L847.411 212.998H851.235V211.723L856.415 206.529L859.786 207.982L862.253 206.255L865.254 208.53L863.705 210.175L867.624 211.449L868.721 210.175L873.092 214.094V222.371L871.174 224.289V229.387H875.997L876.916 232.841H879.465V237.13H881.835V239.679H886.289V240.953H888.386V235.759H889.756V234.485H896.676L898.951 233.759V231.758H900.596L902.596 233.759H905.968V237.034L911.312 239.665L912.545 238.007L918.863 239.583V244.201H920.932L920.562 240.076L939.624 233.265L948.614 223.563L954.808 210.449V204.501L948.97 202.555L951.889 198.91L942.543 186.769L936.828 183.726L940.72 174.627H945.215V172.804L937.747 170.557L933.622 174.682L925.413 166.487L935.198 156.716L939.446 160.964L935.677 164.733L938.171 167.213L945.695 162.362H945.708L949.312 157.264L948.477 155.565Z" fill="#1E59A4" stroke="white" stroke-width="0.6" stroke-miterlimit="10"/>
<path d="M763.928 157.086L759.557 155.497L761.749 153.071L760.694 152.482L761.009 152.03V150.33H768.546V148.754H771.219L772.863 150.413H786.635L791.98 152.043L792.158 154.469H788.581V157.689H782.017V160.718H778.372V159.635L773.822 161.636V164.061L771.52 163.938V164.911L763.174 164.514L762.654 164.007H757.981L757.378 162.609L759.981 160.841L762.352 162.006L762.489 161.293L766.6 161.334L769.273 158.662L763.928 155.497V157.086Z" fill="#1E59A4" stroke="white" stroke-width="0.6" stroke-miterlimit="10"/>
<path d="M963.304 168.186L957.59 163.582L962.824 158.361L961.125 155.565L961.783 151.372L963.085 150.07H960.193L958.097 148.919L957.37 149.495V151.221L953.136 153.633L953.712 155.565L949.998 154.414L948.477 155.565L949.313 157.265L945.708 162.362L950.436 164.185L949.82 170.009L959.906 171.708L963.318 168.214L963.304 168.186Z" fill="#1E59A4" stroke="white" stroke-width="0.6" stroke-miterlimit="10"/>
<path d="M971.321 175.6L963.318 168.214L959.906 171.708L960.152 173.901L957.713 175.23L961.852 178.875L963.058 185.316L971.801 182.644L971.321 175.6Z" fill="#1E59A4" stroke="white" stroke-width="0.6" stroke-miterlimit="10"/>
<path d="M910.366 339.511H906.242V332.837H903.569V329.069L883.165 313.529L880.986 307.705H875.641L873.942 306.005H869.324L884.617 321.792V330.165H887.289L891.907 340.977L905.269 354.325H910.366V339.511Z" fill="#1E59A4" stroke="white" stroke-width="0.6" stroke-miterlimit="10"/>
<path d="M935.129 358.463L927.976 356.764V359.19L919.712 358.463V356.641L911.696 355.175L907.448 358.573L912.669 359.313L912.066 360.766L940.844 366.59V362.095L935.129 360.889V358.463Z" fill="#1E59A4" stroke="white" stroke-width="0.6" stroke-miterlimit="10"/>
<path d="M958.809 364.288L952.985 363.562L951.766 365.686L942.543 364.288V366.234L950.793 367.81L958.809 366.59V364.288Z" fill="#1E59A4" stroke="white" stroke-width="0.6" stroke-miterlimit="10"/>
<path d="M980.735 364.069L960.426 365.686V366.59H967.429L980.735 365.686V364.069Z" fill="#1E59A4" stroke="white" stroke-width="0.6" stroke-miterlimit="10"/>
<path d="M957.507 369.44V371.359H960.426L962.509 373.455L964.565 371.4L961.92 368.769L957.507 369.44Z" fill="#1E59A4" stroke="white" stroke-width="0.6" stroke-miterlimit="10"/>
<path d="M981.914 365.686L973.267 373.456L975.815 374.182L988.738 365.686L988.012 364.069L981.914 365.686Z" fill="#1E59A4" stroke="white" stroke-width="0.6" stroke-miterlimit="10"/>
<path d="M919.959 341.101L916.314 339.882L914.861 342.307L918.013 344.13L919.959 341.101Z" fill="#1E59A4" stroke="white" stroke-width="0.6" stroke-miterlimit="10"/>
<path d="M911.093 338.305V342.677H913.285V340.484L911.942 336.359L908.297 335.88L908.9 338.305H911.093Z" fill="#1E59A4" stroke="white" stroke-width="0.6" stroke-miterlimit="10"/>
<path d="M986.134 338.114L978.967 336.606V338.908H984.792V340.608L986.134 338.114Z" fill="#1E59A4" stroke="white" stroke-width="0.6" stroke-miterlimit="10"/>
<path d="M985.285 342.677V344.376L987.957 346.678L990.013 344.677L988.738 342.677H985.285Z" fill="#1E59A4" stroke="white" stroke-width="0.6" stroke-miterlimit="10"/>
<path d="M992.205 342.06L993.905 344.678H998.879L1001.43 346.678L1003.37 344.678L1001.43 342.06H992.205Z" fill="#1E59A4" stroke="white" stroke-width="0.6" stroke-miterlimit="10"/>
<path d="M993.055 330.412V328.096L996.083 329.069V327.493L994.836 326.246L996.083 322.998H994.028L996.083 319.847L994.508 319.244L992.205 320.326L990.013 326.644L991.109 328.096V330.536H989.41V332.838H994.384L993.055 330.412Z" fill="#1E59A4" stroke="white" stroke-width="0.6" stroke-miterlimit="10"/>
<path d="M1004.89 330.343L1001.67 329.617V331.988H1004.89V330.343Z" fill="#1E59A4" stroke="white" stroke-width="0.6" stroke-miterlimit="10"/>
<path d="M1028.63 335.386L1026.44 337.579V339.881H1024.38L1020.61 343.65H1016.97V339.634H1015.64L1016.49 335.633L1015.39 332.591H1012.72L1011.62 331.508H1008.47L1007.14 332.837H1001.3L1003.37 336.839H1007.99V339.278H1013.32V340.977H1007.14V342.06L1012.24 346.678L1013.69 344.677L1029.23 352.872L1031.66 361.245H1028.38L1027.41 364.164H1036.28L1038.7 368.782L1041.37 369.097V341.251L1028.63 335.386Z" fill="#1E59A4" stroke="white" stroke-width="0.6" stroke-miterlimit="10"/>
<path d="M958.165 344.979H960.426V353.242H963.674V342.677L966.223 340.128L967.497 341.402V345.582L968.731 346.829V350.2H970.567V348.98H974.103V346.801H972.527L970.526 344.787L972.102 343.211L968.155 339.278L974.418 333.015V331.741L971.581 334.578H968.525L967.333 335.77H964.565V333.934H963.551V328.589L965.483 327.616L979.214 328.836L983.969 324.067L982.914 322.998L978.94 326.986L966.826 324.218L961.783 327.013V332.837H960.426V338.058L958.165 340.32V344.979Z" fill="#1E59A4" stroke="white" stroke-width="0.6" stroke-miterlimit="10"/>
<path d="M925.646 342.677H932.457V344.129H936.952V342.677H942.543V348.254L948.86 345.582V337.209L953.657 332.412V325.917H958.809L959.412 324.218L955.781 320.572L956.767 319.586L952.752 315.584L954.863 313.474L952.958 311.898H946.846V316.544L943.214 324.821H938.843L937.747 323.724H935.376L933.183 325.917H928.551L926.4 323.423H924.81L924.139 320.819L920.535 324.437V330.165L925.646 335.277V342.677Z" fill="#1E59A4" stroke="white" stroke-width="0.6" stroke-miterlimit="10"/>
<path d="M952.259 298.591L944.845 309.404L943.694 308.252L935.554 316.379L930.278 316.927V323.423H926.4L928.551 325.917H933.183L935.376 323.724H937.747L938.843 324.82H943.214L946.846 316.543V311.898H952.958L954.863 313.474L961.002 307.334L952.259 298.591Z" fill="#1E59A4" stroke="white" stroke-width="0.6" stroke-miterlimit="10"/>
<path d="M901.377 309.034L896.608 303.813L893.579 306.005H891.935V303.785L889.03 301.784L887.933 302.744L889.112 304.059L890.085 311.953L893.607 315.475V317.9L902.35 325.067L904.172 327.246H905.392L905.748 322.148L901.377 317.777V309.034Z" fill="#1E59A4" stroke="white" stroke-width="0.6" stroke-miterlimit="10"/>
<path d="M763.079 172.202V168.31H767.697V175.189L774.124 172.805L779.811 171.928L779.29 171.284L779.838 168.831L775.755 167.022L774.699 168.063L773.192 166.556V164.034L771.52 163.938V164.911L763.175 164.514L762.654 164.007H757.981L757.378 162.609L759.982 160.841L762.352 162.006L762.489 161.294L760.9 159.937L761.982 158.964L760.078 157.895L755.528 163.089H751.965V165.007L756.432 170.009L754.774 173.024L756.282 175.189L763.079 172.202Z" fill="#1E59A4" stroke="white" stroke-width="0.6" stroke-miterlimit="10"/>
<path d="M751.855 205.831L754.801 204.556V200.281L756.213 198.856H758.885V197.389L760.475 196.06H762.9V197.389H764.298V190.894H767.423V189.688L765.203 188.098V187.317H769.944V180.205L768.053 178.328V176.272L772.918 174.477L778.016 175.189L779.372 174.203H778.838L780.469 172.75L779.811 171.928L774.124 172.805L767.697 175.189V168.31H763.078V172.202L756.281 175.189L754.774 173.024L754.527 173.476L750.279 172.12V172.86H744.811V177.3L739.823 179.3V181.37H737.274L732.725 179.712V188.715L733.698 189.688L735.644 197.705H738.439V200.733L735.452 203.707L736.534 204.776L741.646 205.831H751.855Z" fill="#1E59A4" stroke="white" stroke-width="0.6" stroke-miterlimit="10"/>
<path d="M774.768 227.688V224.29L771.232 220.754V217.726H768.3V215.67L771.342 212.628H773.192L774.028 213.464H776.796L777.536 209.353L780.345 206.53V203.981H782.25V201.528L784.319 199.445V195.786L785.402 194.703V193.278H782.935V190.907L780.482 188.468V186.317L779.276 185.097V183.85H786.526L790.13 181.178L784.388 179.026V176.655L781.661 174.202H779.372L778.016 175.189L772.918 174.476L768.053 176.272V178.327L769.944 180.205V187.317H765.203V188.098L767.423 189.688V190.894H764.298V197.389H762.9V196.06H760.475L758.885 197.389V198.855H756.213L754.801 200.281V204.556L751.855 205.831H741.646L736.534 204.775L741.714 209.955H743.647V214.82H746.566V217.849H743.167L740.865 220.165V223.029L741.714 223.193H759.557L766.477 230.114V227.688H774.768Z" fill="#1E59A4" stroke="white" stroke-width="0.6" stroke-miterlimit="10"/>
<path d="M805.697 209.079L818.538 216.095L830.556 218.644L835.654 219.096L836.476 217.726L835.297 215.643L835.092 212.025L830.926 213.272L810.069 201.432L807.876 203.611L807.026 203.117L805.697 204.707V209.079Z" fill="#1E59A4" stroke="white" stroke-width="0.6" stroke-miterlimit="10"/>
<path d="M842.862 217.917L843.643 216.725L849.234 217.917L849.769 214.998L847.22 214.45L847.343 212.97L841.217 210.531L838.477 214.82H837.997L837.75 216.643L842.862 217.917Z" fill="#1E59A4" stroke="white" stroke-width="0.6" stroke-miterlimit="10"/>
<path d="M852.509 230.306H851.057V233.033H848.768V227.798H850.372L852.962 225.194L851.509 223.742H841.944V221.234H840.258L838.299 219.274L836.394 221.193L839.395 224.194H837.298V227.839H838.943L840.039 228.935L839.299 230.21L842.56 239.008L848.796 236.678V234.485H851.112L853.537 240.556L853.551 240.57L855.415 240.049L852.509 230.306Z" fill="#1E59A4" stroke="white" stroke-width="0.6" stroke-miterlimit="10"/>
<path d="M857.059 235.938L855.415 234.663V232.936H856.703V229.922H859.334L861.061 225.016L859.813 223.769L861.389 222.193V218.506L864.158 215.725H866.761V213.957L867.529 213.176V211.422L863.705 210.175L865.254 208.53L862.253 206.255L859.786 207.982L856.415 206.529L851.235 211.723V212.998H847.412L847.343 212.97L847.22 214.45L849.769 214.998L849.234 217.917L843.643 216.725L842.862 217.917L837.75 216.643L837.997 214.82H837.476V212.271L836.394 211.627L835.092 212.025L835.297 215.642L836.476 217.725L835.654 219.096L830.556 218.643L818.538 216.095L805.697 209.078V204.707L807.027 203.117L798.325 197.964L798.407 195.786L796.05 193.785L797.502 192.51L798.955 193.785L800.695 192.236L799.777 189.77H797.598L796.502 187.043H799.188V186.083L800.695 184.576V181.027L796.05 179.122L791.678 181.767L790.13 181.177L786.526 183.85H779.276V185.097L780.482 186.316V188.468L782.935 190.907V193.278H785.402V194.703L784.319 195.786V199.444L782.25 201.527V203.98H780.345V206.529L777.536 209.352L776.796 213.463H774.028L773.192 212.628H771.342L768.3 215.67V217.725H771.232V220.754L774.768 224.289V227.688H766.477V230.114L769.876 233.512H773.891V235.636H769.218L777.221 243.653L780.441 240.432V236.061H782.387L786.882 260.467L792.953 270.183V272.979L800.298 287.299V292.096L803.642 295.439H807.15V290.588H809.589V286.093H812.741V262.167L820.031 261.084V258.535L829.254 247.846L834.475 243.954V240.309L840.066 237.527V239.953L842.56 239.007L839.299 230.209L840.039 228.935L838.943 227.839H837.298V224.193H839.395L836.394 221.192L838.299 219.274L840.258 221.233H841.944V223.741H851.509L852.962 225.194L850.372 227.798H848.768V233.032H851.057V230.305H852.509L854.551 237.13H857.059V235.938Z" fill="#1E59A4" stroke="white" stroke-width="0.6" stroke-miterlimit="10"/>
<path d="M884.973 280.201L882.877 276.282V271.869L878.999 267.539V265.319H880.561V261.674L875.093 253.287V246.956H879.369V245.421H881.013V244.201H882.836L886.042 239.679H881.835V237.13H879.465V232.841H876.916L875.998 229.387H871.174V224.29L873.092 222.371V214.094L868.721 210.175L867.625 211.449L867.529 211.422V213.176L866.761 213.957V215.725H864.157L861.389 218.507V222.193L859.813 223.769L861.06 225.016L859.334 229.922H856.703V232.937H855.415V234.663L857.059 235.938V237.13H854.551L855.415 240.049L853.551 240.57L863.733 255.493V263.51H868.598L872.366 260.468L872.599 256.946L875.998 261.687L881.712 278.324L881.136 291.507L884.973 281.612V280.201Z" fill="#1E59A4" stroke="white" stroke-width="0.6" stroke-miterlimit="10"/>
<path d="M895.484 276.857L894.333 272.91L897.554 269.704H905.077V264.058L902.172 261.139V256.219L898.828 252.875H896.402L893.675 255.616L891.839 253.794L889.057 256.589H887.714V247.846H884.932V244.996L883 243.954L882.836 244.201H881.013V245.421H879.369V246.955H875.093V253.287L880.561 261.673V265.318H878.999V267.538L882.877 271.869V276.282L884.973 280.201V281.612L881.136 291.506L880.986 295.069L887.934 302.743L889.03 301.784L891.935 303.785V306.005H893.579L896.608 303.812L893.607 300.537H890.455L887.289 291.191H884.987L883.891 288.766L886.207 279.529V273.829H890.085V276.857H893.36L894.58 279.653L896.279 279.05L896.581 279.324L896.704 276.857H895.484Z" fill="#1E59A4" stroke="white" stroke-width="0.6" stroke-miterlimit="10"/>
<path d="M916.917 264.483L904.296 249.052L911.312 239.665L905.968 237.034V233.759H902.597L900.596 231.758H898.951V233.759L896.676 234.485H889.756V235.76H889.66L892.579 238.678V240.803L896.348 242.872L897.074 242.132L901.911 246.01L900.418 247.531H898.992L898.115 248.408L912.395 262.687L911.627 263.455L913.614 265.456L914.738 277.83L908.791 280.379V283.12H909.873V284.394H905.872V286.299H904.186L905.145 287.19V293.617H907.091L920.192 281.845L920.809 276.747L916.917 264.483Z" fill="#1E59A4" stroke="white" stroke-width="0.6" stroke-miterlimit="10"/>
<path d="M908.791 280.379L914.738 277.831L913.929 269.033H908.475V271.883L903.501 269.704H897.554L894.333 272.911L895.484 276.858H896.704L896.581 279.324L898.869 284.162L901.884 284.189L904.186 286.299H905.872V284.395H909.873V283.12H908.791V280.379Z" fill="#1E59A4" stroke="white" stroke-width="0.6" stroke-miterlimit="10"/>
<path d="M643.787 206.557L645.144 199.376V192.236H646.391L648.556 194.388H650.16L656.162 190.373L657.985 194.963L651.612 197.964L654.079 200.787L653.161 203.802H650.53L648.433 207.9L643.787 206.557Z" fill="#1E59A4" stroke="white" stroke-width="0.6" stroke-miterlimit="10"/>
<path d="M1117.69 415.251L1115.69 409.51L1113.32 410.784L1116.42 419.075L1123.79 426.639L1125.79 424.543L1117.69 415.251Z" fill="#1E59A4" stroke="white" stroke-width="0.6" stroke-miterlimit="10"/>
<path d="M815.893 129.816L822.087 134.804V139.778H831.679L840.299 144.397L845.534 151.07H865.432V153.071L877.368 155.442L882.562 151.893H890.852L893.483 150.248V147.973L896.306 146.247L893.401 143.698V140.683H895.402L896.992 142.286H900.856V139.408H905.967V135.133H917.808V133.858L909.243 128.665H899.499V121.991L891.072 120.1L887.413 123.745H873.27L870.9 121.566L859.58 117.894L857.977 119.497H852.989L848.686 115.194L835.928 111.179V115.016L837.75 116.825V120.662H825.732V117.743H818.085L807.396 124.485L807.109 124.417L807.52 125.814L815.893 129.816Z" fill="#1E59A4" stroke="white" stroke-width="0.6" stroke-miterlimit="10"/>
<path d="M499.021 225.111L532.499 250.696L540.146 248.695L561.675 231.716L562.552 231.031V226.66H554.727L551.986 220.095V202.801L545.436 185.672L548.711 183.671L548.574 173.927H541.886L538.145 175.928L536.788 174.928L524.03 176.298L519.851 179.025H517.932L512.656 181.821H512.492L514.465 194.963H508.641V199.691L487.455 209.352V213.6V216.272L487.935 216.642V215.724V216.642L499.021 225.111Z" fill="#1E59A4" stroke="white" stroke-width="0.6" stroke-miterlimit="10"/>
<path d="M652.942 258.439V270.361L657.985 267.908L665.001 269.142L673.456 277.638L673.566 277.748L675.539 276.076L663.754 265.209L659.766 253.711L655.12 258.439H652.942Z" fill="#1E59A4" stroke="white" stroke-width="0.6" stroke-miterlimit="10"/>
<path d="M673.456 277.638L671.469 280.625V284.791L675.868 284.394L679.033 281.036L676.389 276.857L675.539 276.075L673.566 277.747L673.456 277.638Z" fill="#1E59A4" stroke="white" stroke-width="0.6" stroke-miterlimit="10"/>
<path d="M599.401 273.417V263.989H606.486V245.502H605.088V247.969L576.94 231.113L572.857 233.813L573.213 233.936L576.94 245.173V259.261L566.471 273.417H567.471L569.513 279.638L573.569 275.185L574.213 288.121H570.294L569.568 290.588L575.214 297.864L574.515 299.111L578.941 297.097L580.037 298.508L587.41 291.999H592.563L601.868 283.64L602.923 282.694L599.401 273.417Z" fill="#1E59A4" stroke="white" stroke-width="0.6" stroke-miterlimit="10"/>
<path d="M608.418 237.28V245.502H606.486V263.989H599.401V273.417L602.923 282.694L601.868 283.64L606.171 287.943V293.315L618.477 305.621V308.745L631.577 313.829H641.362L643.637 311.554L644.212 310.979H651.256V305.634L643.116 297.508H639.471V294.219H643.719L652.941 276.692V271.087V270.361V258.439H655.12L659.766 253.711L659.752 253.67L654.778 251.847L653.435 238.13L648.214 234.128L646.556 230.688L639.964 237.28H608.418Z" fill="#1E59A4" stroke="white" stroke-width="0.6" stroke-miterlimit="10"/>
<path d="M639.964 237.28L646.556 230.688L633.277 203.281H634.976L641.17 212.503H642.266L643.363 205.953L640.046 199.238H633.866L629.947 197.059L622.478 200.787L614.009 197.512H608.418V237.28H639.964Z" fill="#1E59A4" stroke="white" stroke-width="0.6" stroke-miterlimit="10"/>
<path d="M470.942 231.689H475.19V220.644H487.935V216.643L487.455 216.273V213.6H471.792L464.748 225.386L460.623 229.264L458.622 234.786L456.251 237.157V240.432H470.942V231.689Z" fill="#1E59A4" stroke="white" stroke-width="0.6" stroke-miterlimit="10"/>
<path d="M623.698 399.738L617.01 405.083H610.994L614.091 415.895H619.477L623.835 424.624H631.221H632.221L637.854 412.88V402.027L633.578 397.765H629.275V395.01L623.698 396.943V399.738Z" fill="#1E59A4" stroke="white" stroke-width="0.6" stroke-miterlimit="10"/>
<path d="M628.357 334.152L624.342 341.442H625.616H628.617V339.99H631.851V335.879H628.357V334.152Z" fill="#1E59A4" stroke="white" stroke-width="0.6" stroke-miterlimit="10"/>
<path d="M630.07 444.426H634.318L635.401 442.48H634.318V439.328H630.07V444.426Z" fill="#1E59A4" stroke="white" stroke-width="0.6" stroke-miterlimit="10"/>
<path d="M473.011 268.73V264.729H475.19H496.801V225.385L499.021 225.111L487.935 216.642V220.644H475.19V231.689H470.942V240.432H456.251V241.281L457.827 244.2V260.713H465.844L473.011 268.73Z" fill="#1E59A4" stroke="white" stroke-width="0.6" stroke-miterlimit="10"/>
<path d="M516.617 266.085H514.931L505.818 274.006L502.995 273.28L497.253 285.216H497.897L501.899 289.217H507.641V284.407L513.807 283.941H517.288H520.755L521.29 283.352L525.661 278.638L516.617 266.085Z" fill="#1E59A4" stroke="white" stroke-width="0.6" stroke-miterlimit="10"/>
<path d="M628.617 341.443H625.616L627.959 348.144L631.851 343.676V339.99H628.617V341.443Z" fill="#1E59A4" stroke="white" stroke-width="0.6" stroke-miterlimit="10"/>
<path d="M602.923 402.41L598.798 398.286V384.321H606.088V376.729H598.976V360.888H594.605V358.147L589.15 359.065V364.341H582.586L579.489 355.42H563.182L567.718 367.315H565.649L568.444 375.578V381.402L561.044 395.86V403.507H594.426L602.923 402.41Z" fill="#1E59A4" stroke="white" stroke-width="0.6" stroke-miterlimit="10"/>
<path d="M561.784 339.757H569.527V331.932L568.595 330.986V328.876L571.075 326.382L568.979 324.271H566.238V320.448H559.687V326.094H553.781L550.109 334.179L558.523 346.622L561.784 344.443V339.757Z" fill="#1E59A4" stroke="white" stroke-width="0.6" stroke-miterlimit="10"/>
<path d="M559.687 320.448H553.809V326.039L553.781 326.094H559.687V320.448Z" fill="#1E59A4" stroke="white" stroke-width="0.6" stroke-miterlimit="10"/>
<path d="M475.19 276.98V275.555V264.729H473.011V268.73L465.844 260.714H457.827V263.139L456.251 267.511V276.98H467.571H475.19Z" fill="#1E59A4" stroke="white" stroke-width="0.6" stroke-miterlimit="10"/>
<path d="M668.838 317.282L671.675 314.446L667.659 310.43L664.549 313.527V314.994H658.999L654.983 310.979H651.256H644.212L643.637 311.554L648.885 321.777L643.842 329.205L645.843 329.808V333.987L644.747 335.097L657.724 342.305L657.08 345.581L663.534 349.637L670.688 336.358L671.058 335.961L668.838 333.741V317.282Z" fill="#1E59A4" stroke="white" stroke-width="0.6" stroke-miterlimit="10"/>
<path d="M566.238 320.448H576.94V317.077L571.294 304.785L574.515 299.112L575.214 297.865L569.568 290.588L570.294 288.121H574.213L573.569 275.185L569.513 279.639L570.294 282.023L559.824 303.058L557.084 300.057H553L548.93 310.033H549.588L553.808 314.254V320.448H559.687H566.238Z" fill="#1E59A4" stroke="white" stroke-width="0.6" stroke-miterlimit="10"/>
<path d="M657.724 342.306L644.747 335.098L642.02 337.811V340.483H636.442V333.741H631.851V335.879V339.99V343.676L627.96 348.144L627.576 348.596L633.318 366.356L644.61 370.083L645.747 374.167L647.063 378.922H658.354L667.043 375.318V372.906H663.027V350.569L663.534 349.637L657.08 345.581L657.724 342.306Z" fill="#1E59A4" stroke="white" stroke-width="0.6" stroke-miterlimit="10"/>
<path d="M647.063 378.922L645.747 374.167L644.24 382.28L645.747 388.474H649.159V397.587L646.693 401.958L642.869 396.764L645.199 394.449V390.474H641.143L639.114 388.693L628.905 392.462L630.001 394.764L629.275 395.01V397.765H633.578L637.854 402.027V412.88L632.221 424.624H631.221L634.318 431.915V439.328V442.48H635.401H636.565V437.629L645.487 431.791V416.553L667.043 395.01V375.318L658.354 378.922H647.063Z" fill="#1E59A4" stroke="white" stroke-width="0.6" stroke-miterlimit="10"/>
<path d="M479.685 295.494L480.137 294.959L476.766 288.121H471.312L470.147 291.246L470.339 291.437V297.741L475.067 301.057L479.685 295.494Z" fill="#1E59A4" stroke="white" stroke-width="0.6" stroke-miterlimit="10"/>
<path d="M487.057 301.331V297.782L479.685 295.494L475.067 301.057L489.702 311.294L490.703 304.977L487.057 301.331Z" fill="#1E59A4" stroke="white" stroke-width="0.6" stroke-miterlimit="10"/>
<path d="M456.251 276.98V277.706L462.774 284.065L467.571 276.98H456.251Z" fill="#1E59A4" stroke="white" stroke-width="0.6" stroke-miterlimit="10"/>
<path d="M513.807 283.941L507.64 284.407V289.217H508.956V295.822L506.914 297.864V308.635L510.642 310.006L520.577 304.552L517.288 283.941H513.807Z" fill="#1E59A4" stroke="white" stroke-width="0.6" stroke-miterlimit="10"/>
<path d="M526.483 277.748L525.661 278.652L521.29 283.366L520.755 283.942L523.578 287.491C523.578 287.491 523.948 298.44 524.071 302.634L524.126 302.606H527.771V292.411L531.869 285.86V282.558V280.392L526.483 277.748Z" fill="#1E59A4" stroke="white" stroke-width="0.6" stroke-miterlimit="10"/>
<path d="M520.755 283.941H517.302L520.577 304.565L524.085 302.647C523.948 298.453 523.592 287.504 523.592 287.504L520.755 283.941Z" fill="#1E59A4" stroke="white" stroke-width="0.6" stroke-miterlimit="10"/>
<path d="M487.455 209.352L508.641 199.691V194.963H514.465L512.492 181.821H503.666L501.446 179.601H498.747L495.472 186.768L486.852 191.866L486.482 193.935L483.577 198.54L484.906 202.678L477.136 212.997H472.161L471.792 213.6H487.455V209.352Z" fill="#1E59A4" stroke="white" stroke-width="0.6" stroke-miterlimit="10"/>
<path d="M581.49 449.044V450.675L587.506 451.579L590.85 449.675V422.815H594.92V407.029L602.799 405.083L611.186 405.713L610.994 405.083H609.843V404.781V403.137H603.649L602.923 402.41L594.426 403.507H561.044V405.576L571.473 426.94L576.817 450.127H578.16L578.229 450.264L579.736 447.756L581.49 449.044Z" fill="#1E59A4" stroke="white" stroke-width="0.6" stroke-miterlimit="10"/>
<path d="M593.508 442.933H597.153L601.073 436.108H603.896L605.17 438.424H610.638L623.643 424.213L619.477 415.895H614.091L611.186 405.713L602.799 405.083L594.92 407.029V422.815H590.85V434.888L594.056 439.328L593.508 442.933Z" fill="#1E59A4" stroke="white" stroke-width="0.6" stroke-miterlimit="10"/>
<path d="M635.401 442.48L634.318 444.426H630.07V439.328H634.318V431.915L631.221 424.624H623.835L623.643 424.213L610.638 438.424H605.17L603.896 436.108H601.073L597.154 442.932H593.508L594.056 439.328L590.85 434.888V449.675L587.506 451.58L581.49 450.675V449.044L579.736 447.756L578.229 450.264L584.587 462.885V468.339H581.915L589.452 475.876L613.557 470.354L636.565 447.331V442.48H635.401Z" fill="#1E59A4" stroke="white" stroke-width="0.6" stroke-miterlimit="10"/>
<path d="M678.814 403.013V407.152L679.965 408.303V414.072L677.718 419.403H676.265L674.511 421.171V425.597L676.909 427.995V432.887L678.691 436.163H680.993V437.382H684.035L685.378 436.053H688.777L692.655 423.665L699.699 406.658V402.04L701.151 399.258L699.575 395.01L701.151 393.791L702.248 396.833L703.947 393.791L702.371 391.365V384.321L699.027 380.978L697.63 382.375V386.267H694.601V391.118L688.037 395.983H680.884V399.861L678.814 403.013Z" fill="#1E59A4" stroke="white" stroke-width="0.6" stroke-miterlimit="10"/>
<path d="M522.783 264.852H530.307L533.952 261.193V250.313L532.499 250.696L499.021 225.111L496.801 225.385V264.729H475.19V275.555H484.509L487.702 285.216H497.253L502.995 273.28L505.818 274.006L514.931 266.086H516.617L517.124 266.798H520.851L522.783 264.852Z" fill="#1E59A4" stroke="white" stroke-width="0.6" stroke-miterlimit="10"/>
<path d="M569.513 279.638L567.471 273.417H566.772L562.538 276.335L560.797 274.595H555.439L553.384 276.651H549.533L546.477 273.595L544.517 275.541H542.777L540.214 272.978H532.595V275.431L531.046 276.98V279.981L531.869 280.378V282.543V285.846L527.771 292.41V302.606H534.198L539.789 310.033H548.93L553 300.057H557.084L559.824 303.058L570.294 282.023L569.513 279.638Z" fill="#1E59A4" stroke="white" stroke-width="0.6" stroke-miterlimit="10"/>
<path d="M576.941 259.261V245.173L573.213 233.936L572.857 233.813L567.17 231.716H561.675L540.146 248.695L533.952 250.312V261.193L530.307 264.852H522.783L520.851 266.798H517.124L525.661 278.638L526.483 277.747L531.047 279.981V276.98L532.595 275.431V272.978H540.214L542.777 275.541H544.517L546.477 273.595L549.533 276.651H553.384L555.439 274.595H560.798L562.538 276.336L566.772 273.417H566.471L576.941 259.261Z" fill="#1E59A4" stroke="white" stroke-width="0.6" stroke-miterlimit="10"/>
<path d="M487.702 285.216L484.509 275.555H475.19V276.98H467.571L462.774 284.065L470.147 291.246L471.312 288.121H476.766L480.137 294.959L479.685 295.494L485.756 297.371L488.305 285.216H487.702Z" fill="#1E59A4" stroke="white" stroke-width="0.6" stroke-miterlimit="10"/>
<path d="M507.641 289.217H501.899L497.897 285.216H497.253H488.305L485.756 297.371L487.058 297.782V301.331L490.703 304.977L489.702 311.294L490.127 311.596L494.855 307.827H504.694L506.914 308.636V297.864L508.956 295.823V289.217H507.641Z" fill="#1E59A4" stroke="white" stroke-width="0.6" stroke-miterlimit="10"/>
<path d="M554.658 199.033H557.029V195.566H559.331V190.29L558.838 190.084L554.357 188.138V186.398L558.18 182.575V179.478H556.275V177.395L558.18 175.476V174.106L555.357 175.024V172.927H552.26L550.807 173.928H548.574L548.711 183.671L545.435 185.672L551.904 202.555H554.658V199.033Z" fill="#1E59A4" stroke="white" stroke-width="0.6" stroke-miterlimit="10"/>
<path d="M607.993 197.512V194.963H601.525V192.866L596.975 191.235L589.425 194.785V197.059L590.918 199.649L587.41 203.158L573.487 198.06V194.593L567.019 192.318H564.004L559.331 190.29V195.566H557.029V199.033H554.658V202.555H551.904L551.986 202.801V220.095L554.727 226.66H562.552V231.031L561.675 231.716H567.17L572.857 233.813L576.941 231.113L605.088 247.969V245.502H606.486H608.418V237.28V197.512H607.993Z" fill="#1E59A4" stroke="white" stroke-width="0.6" stroke-miterlimit="10"/>
<path d="M683.624 308.663L695.779 296.508H692.408L681.061 291.643L675.539 286.12V284.421L671.469 284.791V280.625L673.456 277.638L665.001 269.141L657.984 267.908L652.941 270.361V271.087V276.692L643.719 294.219H639.471V297.508H643.116L651.256 305.634V310.979H654.983L658.998 314.994H664.548V313.528L667.659 310.431L670.797 313.569L680.308 308.663H683.624Z" fill="#1E59A4" stroke="white" stroke-width="0.6" stroke-miterlimit="10"/>
<path d="M682.336 286.216L679.033 281.036L675.868 284.394L675.539 284.421V286.12L681.062 291.643L692.408 296.508H695.779L683.624 308.663H680.308L670.798 313.569L671.675 314.446L668.838 317.283V333.741L671.058 335.961L697.876 306.608L706.126 286.216V279.776L682.336 286.216Z" fill="#1E59A4" stroke="white" stroke-width="0.6" stroke-miterlimit="10"/>
<path d="M633.482 320.983L628.33 326.122L627.37 335.947L628.357 334.152V335.879H631.851V333.741H636.442V329.561L641.965 328.643L643.842 329.205L648.885 321.778L643.637 311.555L641.362 313.83H631.851V319.366L633.482 320.983Z" fill="#1E59A4" stroke="white" stroke-width="0.6" stroke-miterlimit="10"/>
<path d="M567.594 350.089L570.294 348.143V350.089H572.939L577.612 345.403V338.784L583.559 332.836V326.765V314.994H578.763V319.722H576.94V320.448H566.238V324.271H568.979L571.075 326.382L568.595 328.876V330.986L569.527 331.932V339.757H561.784V344.443L558.523 346.622L561.524 351.048L561.606 351.268L565.772 348.143L567.594 350.089Z" fill="#1E59A4" stroke="white" stroke-width="0.6" stroke-miterlimit="10"/>
<path d="M645.747 388.473L644.24 382.279L645.747 374.167L644.61 370.083L640.074 368.589V382.252L637.607 389.241L639.114 388.693L641.143 390.474H645.199V394.448L642.869 396.764L646.693 401.958L649.159 397.586V388.473H645.747Z" fill="#1E59A4" stroke="white" stroke-width="0.6" stroke-miterlimit="10"/>
<path d="M633.318 366.356L632.619 364.204L624.904 365.081V366.465L622.286 369.083L623.506 370.289V374.482L622.231 377.209V378.977L624.424 381.183H628.056V386.473H625.054L620.231 381.649L619.203 378.333H616.955V380.8L611.488 379.457V378.073H608.267V376.853L606.815 375.88L606.034 376.73H606.088V384.321H598.798V398.286L602.923 402.41L603.649 403.137H609.843V404.781V405.083H610.994H617.01L623.698 399.738V396.943L629.275 395.01L630.001 394.764L628.905 392.461L637.607 389.241L640.074 382.252V368.59L633.318 366.356Z" fill="#1E59A4" stroke="white" stroke-width="0.6" stroke-miterlimit="10"/>
<path d="M585.642 310.431L590.082 308.978L591.549 311.554L601.073 313.829L601.703 310.431L603.992 310.856L614.146 308.444H618.476V305.621L606.17 293.315V287.943L601.868 283.64L592.563 291.999H587.41L580.037 298.508L578.941 297.097L574.515 299.111L571.294 304.785L576.94 317.077V319.722H578.763V314.994H583.559L585.642 312.733V310.431Z" fill="#1E59A4" stroke="white" stroke-width="0.6" stroke-miterlimit="10"/>
<path d="M624.904 365.081L632.619 364.204L627.576 348.596L627.96 348.144L625.616 341.442H624.342L627.37 335.947L628.33 326.122L633.482 320.983L631.851 319.366V313.829H631.577L618.477 308.745V308.444H614.146L603.992 310.856L601.703 310.431L601.073 313.829L591.549 311.555L590.082 308.978L585.642 310.431V312.733L583.559 314.994V326.766V332.837L577.612 338.784V345.403L572.939 350.09H570.294V348.144L567.594 350.09L565.772 348.144L561.606 351.268L561.702 351.542L563.182 355.42H579.489L582.586 364.341H589.151V359.066L594.605 358.147V360.888H598.976V376.73H606.034L606.815 375.88L608.267 376.853V378.073H611.488V379.457L616.955 380.8V378.333H619.203L620.231 381.649L625.054 386.473H628.055V381.183H624.424L622.231 378.977V377.209L623.506 374.482V370.289L622.286 369.083L624.904 366.466V365.081Z" fill="#1E59A4" stroke="white" stroke-width="0.6" stroke-miterlimit="10"/>
<path d="M459.403 60.488L463.775 67.0521L473.491 68.9844L488.784 60.488L484.18 56.6099L468.64 59.7617L465.967 56.6099L459.403 60.488Z" fill="#1E59A4" stroke="white" stroke-width="0.6" stroke-miterlimit="10"/>
<path d="M382.909 77.001H391.405V81.3725H397.969L417.511 61.831H425.171L438.094 48.8946L467.173 44.2216H471.545V32.8064L480.781 23.5838V11.9219H493.896L505.667 8.27669V6.33076H483.686L476.41 1H449.454L414.729 5.12483L397.969 5.60446L378.784 13.1415H367.122L359.421 20.843L362.997 24.0634H385.581V38.8772H391.652V42.2757H382.909V46.4005H389.226L387.157 48.4698H382.429L377.811 55.1435L382.909 77.001Z" fill="#1E59A4" stroke="white" stroke-width="0.6" stroke-miterlimit="10"/>
<path d="M210.858 236.677L212.859 237.952L219.231 235.211H223.795L222.657 236.348H226.7L231.441 240.309V242.871H236.717V245.05H234.717V246.873H243.281L248.009 245.42V243.598H243.09V241.049H239.458L233.346 234.937H229.441V233.58L225.425 232.306H219.231L210.858 236.677Z" fill="#1E59A4" stroke="white" stroke-width="0.6" stroke-miterlimit="10"/>
<path d="M217.368 237.979L218.806 236.664L220.355 237.732L218.861 239.007L217.368 237.979Z" fill="#1E59A4" stroke="white" stroke-width="0.6" stroke-miterlimit="10"/>
<path d="M232.072 251.601L231.167 253.149L233.62 254.972H238.814L239.184 253.286L235.635 251.601H232.072Z" fill="#1E59A4" stroke="white" stroke-width="0.6" stroke-miterlimit="10"/>
<path d="M272.69 252.149V254.615H277.061L278.157 253.382V252.149H272.69Z" fill="#1E59A4" stroke="white" stroke-width="0.6" stroke-miterlimit="10"/>
<path d="M329.423 544.107H333.164L334.165 545.107L331.794 548.204L329.423 546.93V544.107Z" fill="#1E59A4" stroke="white" stroke-width="0.6" stroke-miterlimit="10"/>
<path d="M334.973 545.382L332.89 549.123H335.343L337.81 547.259H339.167V545.382H334.973Z" fill="#1E59A4" stroke="white" stroke-width="0.6" stroke-miterlimit="10"/>
<path d="M362.751 13.0183L392.269 6.6324L393.351 4.0972L372.042 2.82275L326.518 5.37165V7.92055L331.068 10.4695L329.793 13.0183L321.776 7.92055L308.662 11.0176V16.1154L319.228 18.1161V20.1169H310.115V23.2139L333.617 24.1184L341.633 21.7613V17.7461L356.378 12.4702L362.751 13.0183Z" fill="#1E59A4" stroke="white" stroke-width="0.6" stroke-miterlimit="10"/>
<path d="M283.351 13.4705L286.873 18.8423H305.565V16.1564L301.81 14.7175L295.972 15.3205H290.395L283.351 13.4705Z" fill="#1E59A4" stroke="white" stroke-width="0.6" stroke-miterlimit="10"/>
<path d="M295.726 21.5148V23.0907H301.44V25.2833L299.138 26.3659V28.6818H328.752L331.191 25.7629L321.955 25.0914L317.83 25.6396H308.662V20.4185L295.726 21.5148Z" fill="#1E59A4" stroke="white" stroke-width="0.6" stroke-miterlimit="10"/>
<path d="M227.001 24.1182L249.832 18.8423L254.203 25.1597L259.301 24.5431V21.9942H267.441V26.489L244.981 30.2575L227.001 24.1182Z" fill="#1E59A4" stroke="white" stroke-width="0.6" stroke-miterlimit="10"/>
<path d="M274.361 21.7615V25.393H278.98V26.9826H287.229L291.244 28.6819L296.466 26.0096H290.628V21.7615H274.361Z" fill="#1E59A4" stroke="white" stroke-width="0.6" stroke-miterlimit="10"/>
<path d="M305.565 30.7373L291.477 38.8773V42.2759H298.521V43.9751H317.46L320.625 43.0022L328.875 51.2655L311.636 60.8582H306.058V64.2567H317.583L323.174 69.8341H334.343L340.838 63.3386L336.892 59.3919L341.14 55.1437L347.704 61.7078L356.022 53.3896L344.662 47.867L349.157 44.5781L332.52 31.354L305.565 30.7373Z" fill="#1E59A4" stroke="white" stroke-width="0.6" stroke-miterlimit="10"/>
<path d="M263.864 34.1497C263.864 34.1497 266.112 39.4256 267.441 39.4256C268.77 39.4256 279.514 35.4241 279.514 35.4241L282.063 28.6819L263.864 34.1497Z" fill="#1E59A4" stroke="white" stroke-width="0.6" stroke-miterlimit="10"/>
<path d="M202.293 36.3285L205.939 39.4255H213.037L221.424 36.3285V37.877L218.82 40.467H216.504V41.4263H227.001L229.948 44.3726H217.052V45.9759H222.15V46.8941L220.602 48.4426V49.347H227.001L241.911 45.7018V46.9763L247.228 48.7989L252.203 48.2507L253.929 45.0715L257.67 45.7018L259.301 43.8929L253.203 40.33L255.752 38.6033L256.93 34.4099L262.398 32.8614V31.0388L251.833 32.5051L248.475 37.9729L246.735 37.507L247.831 34.8622L244.734 33.3273L236.991 33.5055L232.798 29.3121H225.617L224.932 28.627H213.955V31.2307L202.293 36.3285Z" fill="#1E59A4" stroke="white" stroke-width="0.6" stroke-miterlimit="10"/>
<path d="M281.337 64.1057V65.2842L276.431 66.7505V67.6549H280.884V68.8335H283.351L289.079 65.4623L293.177 68.2031L296.74 66.4764L294.177 64.1057L294.451 63.1875L289.449 59.186H286.9L281.337 64.1057Z" fill="#1E59A4" stroke="white" stroke-width="0.6" stroke-miterlimit="10"/>
<path d="M282.529 71.6566V73.027H285.53L289.997 70.574V69.2996L285.626 69.834L282.529 71.6566Z" fill="#1E59A4" stroke="white" stroke-width="0.6" stroke-miterlimit="10"/>
<path d="M291.477 73.6712L293.547 71.6567H295.917V72.6571L293.697 74.8497L291.477 73.6712Z" fill="#1E59A4" stroke="white" stroke-width="0.6" stroke-miterlimit="10"/>
<path d="M314.308 121.114L316.268 123.073V123.937L320.132 125.485L322.777 125.019V123.292L318.049 121.114H314.308Z" fill="#1E59A4" stroke="white" stroke-width="0.6" stroke-miterlimit="10"/>
<path d="M328.149 129.212L341.304 116.057L346.183 114.549V115.824L340.304 121.703H342.99V123.292H349.006V124.759H347.183V126.568H350.184V130.405L346.594 133.995H344.086L346.21 131.871L344.771 130.446L340.989 134.228H337.892V132.405H340.085L341.578 130.898H338.618V130.13H328.149V129.212Z" fill="#1E59A4" stroke="white" stroke-width="0.6" stroke-miterlimit="10"/>
<path d="M310.032 133.995L313.856 136.722L316.72 135.365V134.584H313.376L311.759 133.625V132.679H310.252L310.032 133.995Z" fill="#1E59A4" stroke="white" stroke-width="0.6" stroke-miterlimit="10"/>
<path d="M345.032 105.532L344.305 103.107L336.782 98.8586V96.666L335.686 95.5697L337.755 93.0208L335.329 79.4267H333.507L326.463 86.4704H324.887L320.269 87.923L317.24 84.0311L321.365 78.3167L319.721 76.6722H315.774V73.4518L311.649 70.9029L308.854 72.2322H305.579L301.687 70.4096L298.042 72.4789V75.1511L295.123 77.4533V81.3315L289.477 86.9775L291.902 89.403V93.2264L287.75 97.3786L276.307 101.956V104.505L274.005 111.548L270.237 114.7H266.591V113.124L265.07 111.603V108.629L268.167 109.726L268.894 107.656L266.098 105.834V102.792L269.25 100.722V99.2697H260.754L259.232 97.7486L253.093 93.6786L248.365 91.4997H243.268L245.214 85.9086H241.445V83.8393L246.173 79.0978L259.657 69.7518H265.481V67.4496H268.633L270.209 64.9007H275.554L281.501 61.8585L282.049 60.4059L286.969 57.6103V55.9111H291.464V57.3636L293.533 59.7892L294.753 57.3636L302.399 54.5681L304.592 51.8958V48.9769H308.36V45.5784H298.891V47.8806L287.353 52.7318L286.023 51.4025L289.367 48.0588L287.298 45.9895L283.831 49.4429L282.077 46.524V44.2217C282.077 44.2217 284.447 45.0714 284.447 44.2217C284.447 43.3721 284.447 37.781 284.447 37.781L288.449 34.7524H292.574L299.741 31.1072V30.1343H288.271L282.077 36.9313L270.058 42.9336L275.156 45.6606V49.3058H267.441V44.208H263.864L257.89 50.1829H245.474L240.554 47.8395L227.015 53.1155H212.873V50.1418H216.518V47.0995L201.033 43.6325L189.014 41.6043L160.415 47.0995L150.712 44.9754L108.724 81.4274L112.945 85.6482V88.2656L109.957 91.5408V100.832H114.329L115.782 98.2831H117.782V103.025L114.863 106.3L116.686 110.849L114.863 115.591H110.862V119.962L117.056 126.156L116.782 126.705L122.88 128.897V125.074H213.215L226.234 129.665L229.975 128.171L230.523 129.171L236.539 125.444H241.637V128.815H244.09V133.461L245.186 137.832H251.106H254.477L255.752 139.107V141.56L253.34 143.971L251.846 142.478L250.106 144.204H248.749L244.117 148.836H243.624L242.706 152.029L247.653 150.303L253.847 148.384L255.765 145.109L265.139 144.204V145.191L271.881 140.984H283.899L293.889 130.994H298.836V133.447L296.959 137.325L298.028 139.847L305.935 138.545V140.244L299.014 144.245L300.714 147.767L309.457 142.793L319.173 139.997V138.778H321.845L324.024 136.229L322.448 135.256L323.544 133.433L322.092 132.46L317.843 136.229L317.72 137.805H313.102L308.73 135.256V131.611L314.678 126.389V123.964H309.21L294.15 130.158V128.212L305.318 123.594V121.045L307.744 118.619H329.231L337.248 115.468L341.373 115.098L345.868 112.302L348.54 106.601L345.032 105.532ZM183.78 61.6392L192.742 58.5559L186.507 55.7877L201.91 55.3218L196.88 58.3914L202.526 61.1733L194.743 62.0777L192.262 61.9544L186.342 62.9137L180.08 65.4489L183.711 62.4614L183.78 61.6392ZM208.857 71.6567L191.371 77.6726H182.08V75.85L191.001 73.027L191.18 69.8478L196.277 73.027L208.844 69.2996V71.6567H208.857ZM215.956 115.372L213.037 120.099L212.215 118.825L213.942 115.906V112.987L212.914 111.644L212.201 103.107L216.518 101.517L215.956 115.372Z" fill="#1E59A4" stroke="white" stroke-width="0.6" stroke-miterlimit="10"/>
<path d="M108.505 81.3591L108.71 81.5783L150.699 45.1263L118.879 38.1511L85.373 48.1686H77.5344L74.2592 49.6212L78.8089 55.8153V58.3642H71.1622V55.4453H64.4199L56.0469 58.3642V64.3801L70.2577 62.3657V66.3809L41.8361 74.3976V77.1246L37.6565 78.399V81.4961H44.5769V83.4968L40.4794 87.5943H43.3024H50.771L46.0295 90.4172L1.04004 104.806V106.451L26.7209 100.257V101.709H30.7361V98.434L52.0454 91.1435L65.6944 85.4976V83.1406L78.2607 78.0291V79.6735L71.8885 82.9487V84.5932L82.0978 81.318H87.3737L90.1967 78.495H95.3904L98.2545 81.3591H108.505Z" fill="#1E59A4" stroke="white" stroke-width="0.6" stroke-miterlimit="10"/>
<path d="M298.823 131.131H293.876L283.885 141.121H271.867L265.139 145.315V147.617H255.752V150.344L243.089 156.538H238.54V153.619L242.706 152.166L243.624 148.973H243.322V145.164L240.691 147.795V146.849L244.117 143.423V140.025L241.911 137.819H240.225L236.717 141.327L235.922 140.532L230.386 146.068V149.111L225.878 153.619H223.15V147.973L233.716 137.408H243.912V135.311H241.911H234.99L233.346 133.68V131.309L224.877 134.955H223.246V133.488L218.779 134.228V132.762L226.247 129.788L213.229 125.211H122.894V129.035L116.782 126.842L112.684 134.859L95.5685 159.265V185.316L103.489 193.237V193.511H113.959L125.621 198.965H135.816V196.238H142.559L146.958 200.637V205.46L150.014 208.516L153.302 205.227H158.277L160.894 207.845V219.315L168.596 221.864L168.719 221.494V215.176L173.94 209.955L187.178 204.501L194.222 207.9L198.114 205.954L200.046 207.406L201.266 206.31L199.32 203.884L203.088 202.432H213.037L215.161 204.556H217.779L218.847 203.501H221.177L224.356 206.666V209.832L221.547 212.641V217.616L225.919 224.646H228.098L230.77 216.876V209.229L228.344 202.911L234.538 194.059H235.991L242.555 187.495H246.063L248.982 184.576H252.997V181.068L255.299 178.752V170.255L256.999 168.556L258.328 170.132L257.245 172.201L258.328 172.681L262.699 168.186L262.343 165.404H264.166L269.387 160.169V157.621L281.528 155.442V151.92H282.858V149.124L287.832 145.479L297.069 142.081V140.148L298.014 139.984L296.945 137.476L298.823 133.584V131.131Z" fill="#1E59A4" stroke="white" stroke-width="0.6" stroke-miterlimit="10"/>
<path d="M255.121 246.873L252.751 245.777L249.928 246.873L249.832 247.695L252.929 247.969L252.751 251.614H245.556C245.556 251.998 245.556 253.3 245.556 253.3L247.9 255.643L249.736 253.3H254.656L254.957 253.601L256.958 246.448L255.121 246.873Z" fill="#1E59A4" stroke="white" stroke-width="0.6" stroke-miterlimit="10"/>
<path d="M266.962 249.778H264.317L259.767 245.777L256.971 246.434L254.957 253.588L256.793 255.424H258.123V252.519H260.123V253.615H262.85V252.423L266.962 253.615L268.592 251.601L266.962 249.778Z" fill="#1E59A4" stroke="white" stroke-width="0.6" stroke-miterlimit="10"/>
<path d="M189.768 268.662L194.756 263.646H192.536V262.618L191.604 263.194H190.289L191.522 254.958H183.368V257.507L186.191 260.33V262.522H180.354C180.354 262.522 179.011 265.962 178.147 268.209L185.369 272.718H185.726L189.768 268.662Z" fill="#1E59A4" stroke="white" stroke-width="0.6" stroke-miterlimit="10"/>
<path d="M186.178 262.537V260.344L183.355 257.521V254.972H191.509H192.002L196.003 250.971L198.032 252.999L199.799 248.463V245.297L203.074 242.022L203.198 239.35H196.757L188.864 240.926V246.147L184.616 250.518H179.394V252.094L173.077 253.314L171.981 252.218H168.212L164.087 239.226V234.252L168.568 221.864L160.881 219.315V207.845L158.263 205.227H153.289L150 208.516L146.944 205.46V200.637L142.545 196.238H135.803V198.965H125.607L113.945 193.497H103.476V204.789L109.08 210.394V213.532H104.476V215.355L112.123 223.001L109.574 225.55L117.412 233.375V235.198H121.236V229.182L117.508 225.454V220.082L113.233 208.79L110.314 203.693V196.95L118.33 200.774V207.324L125.799 218.068L123.976 220.439L135.816 235.184V243.557H132.898V246.106L139.722 252.93H145.82L163.676 264.318L170.597 260.673L178.065 268.141L178.134 268.183C178.997 265.935 180.34 262.495 180.34 262.495H186.178V262.537Z" fill="#1E59A4" stroke="white" stroke-width="0.6" stroke-miterlimit="10"/>
<path d="M192.002 254.972H191.508L190.275 263.222H191.591L192.523 262.632V261.44L196.168 257.795L198.045 252.999L196.017 250.97L192.002 254.972Z" fill="#1E59A4" stroke="white" stroke-width="0.6" stroke-miterlimit="10"/>
<path d="M208.556 284.517V278.679L210.611 277.706V271.526L212.133 270.004V268.004H205.486L198.566 272.005V275.691H195.373V277.473L201.457 283.544L208.679 284.64L208.556 284.517Z" fill="#1E59A4" stroke="white" stroke-width="0.6" stroke-miterlimit="10"/>
<path d="M189.768 268.662L185.726 272.732H194.839C194.839 271.992 194.839 271.279 194.839 271.279L189.768 268.662Z" fill="#1E59A4" stroke="white" stroke-width="0.6" stroke-miterlimit="10"/>
<path d="M198.566 272.006L205.486 267.991H212.133V265.318L210.461 263.646H194.743L189.754 268.662L194.825 271.266C194.825 271.266 194.825 271.978 194.825 272.718H195.373V275.678H198.566V272.006Z" fill="#1E59A4" stroke="white" stroke-width="0.6" stroke-miterlimit="10"/>
<path d="M208.679 284.641L201.458 283.544L201.663 283.75V288.573L207.268 294.178V295.686L210.516 298.934V296.289H211.598L212.311 288.217L208.679 284.641Z" fill="#1E59A4" stroke="white" stroke-width="0.6" stroke-miterlimit="10"/>
<path d="M232.647 293.918L228.522 289.793L223.973 289.491L217.409 293.26L212.311 288.217L211.598 296.288H214.627V298.933H221.78V295.315L224.768 292.342L228.043 295.617L226.768 296.891L229.536 299.659L232.647 296.59V293.918Z" fill="#1E59A4" stroke="white" stroke-width="0.6" stroke-miterlimit="10"/>
<path d="M222.876 348.623L224.946 351.295L227.974 342.799L237.457 338.784V330.534L224.123 321.764L223.246 322.641V324.463L220.081 325.916V329.561L216.326 333.316V339.757L219.903 343.333V344.375L218.93 345.348L219.355 348.5L222.876 348.623Z" fill="#1E59A4" stroke="white" stroke-width="0.6" stroke-miterlimit="10"/>
<path d="M246.461 340.209L253.655 339.031L257.3 341.128L255.3 345.773L258.547 346.472L260.397 334.111L257.122 330.836V327.465H261.041V325.368H258.479V322.641H268.592L266.413 318.092V303.429H260.397L257.533 300.551H250.558L248.653 291.671H246.653L249.284 284.024L252.257 282.352L252.148 281.968L256.149 279.173L254.45 276.747L247.036 282.571H241.829L238.115 286.271V289.615L233.237 294.494L232.647 293.918V296.59L229.537 299.66L231.619 301.757V306.005L230.647 306.978V315.227L224.124 321.764L237.457 330.535V331.603L245.46 335.482L246.461 340.209Z" fill="#1E59A4" stroke="white" stroke-width="0.6" stroke-miterlimit="10"/>
<path d="M262.891 394.887L264.399 389.296L264.645 382.129L261.247 375.825H256.999V370.837H250.078L242.13 362.889L246.68 357.489V351.295L255.053 347.897H258.328L258.547 346.472L255.299 345.773L257.3 341.127L253.655 339.03L246.461 340.209L245.46 335.481L237.457 331.603V338.784L227.974 342.799L224.946 351.295L222.876 348.623L219.355 348.5L218.93 345.348L215.983 348.281V350.925L218.765 353.707V354.817H216.806V356.27L222.397 359.435L225.192 364.889L237.334 386.267V389.543L256.026 401.807V404.233L260.877 407.193L264.275 403.863L263.316 402.164L265.988 398.286L262.891 394.887Z" fill="#1E59A4" stroke="white" stroke-width="0.6" stroke-miterlimit="10"/>
<path d="M293.725 298.536V300.057H290.998V305.401L293.67 308.074V308.567L295.369 308.334L296.74 313.528L294.369 315.899V320.174H295.849V322.449L299.371 325.012L304.797 322.093V315.857L302.66 313.72V308.882H305.839V304.428L296.822 294.466H295.849V296.412L293.725 298.536Z" fill="#1E59A4" stroke="white" stroke-width="0.6" stroke-miterlimit="10"/>
<path d="M302.66 308.882V313.72L304.797 315.857V322.093L309.388 322.339V320.147L313.28 319.119L314.856 320.517L317.309 316.447V314.076L315.706 312.801V308.005L317.528 307.525L318.46 305.689L315.527 304.661H306.058L305.839 304.428V308.882H302.66Z" fill="#1E59A4" stroke="white" stroke-width="0.6" stroke-miterlimit="10"/>
<path d="M276.116 328.52L282.378 322.271V319.845H279.583V315.597L277.513 313.172H285.05L293.67 310.732V308.567V308.074L290.998 305.402V300.057H293.725V298.536L295.849 296.412V294.466H292.45V289.971L286.804 284.325H281.282L278.939 286.669H274.964L273.526 285.23H265.865V282.448H261.247L260.151 278.803H258.575V281.722L254.573 284.873L256.629 287.546L256.026 291.671L254.203 292.287L251.531 288.642L253.107 285.367L252.257 282.352L249.284 284.024L246.652 291.671H248.653L250.558 300.551H257.533L260.397 303.428H266.413V318.091L268.592 322.641H268.291V328.52H276.116Z" fill="#1E59A4" stroke="white" stroke-width="0.6" stroke-miterlimit="10"/>
<path d="M318.008 320.215L321.831 320.516L326.669 311.691L321.831 306.854L318.46 305.689L317.528 307.525L315.706 308.005V312.801L317.309 314.076V316.446L315.254 319.845L317.035 321.065L318.008 320.215Z" fill="#1E59A4" stroke="white" stroke-width="0.6" stroke-miterlimit="10"/>
<path d="M386.677 351.296H381.21L370.836 340.908H362.024L356.927 339.757L352.308 343.155V338.551L341.88 332.837L338.591 336.112H336.412L338.961 331.137V329.685H331.671L329.122 332.837L327.669 331.74L332.397 325.546V321.791H329.971L327.792 312.802L327.066 312.089L326.669 311.692L321.831 320.517L318.008 320.215L317.035 321.065L315.253 319.845L314.856 320.517L313.28 319.119L309.388 320.147V322.339L304.798 322.093L299.371 325.012L295.849 322.449V320.174H294.369V315.899L296.74 313.528L295.369 308.334L293.67 308.567V310.732L285.05 313.172H277.513L279.583 315.597V319.845H282.378V322.271L276.116 328.52H268.291V322.641H258.479V325.368H261.041V327.465H257.122V330.836L260.397 334.111L258.328 347.897H255.053L246.68 351.296V357.49L242.13 362.889L250.078 370.837H256.999V375.825H261.247L261.48 376.264L265.372 376.606L266.345 374.784H267.743L271.758 370.782H276.486V378.374L281.378 383.253H284.502L288.983 387.734H293.3L295.095 389.515V398.532H304.359V402.835H306.415L308.059 406.481L305.935 413.154L308.059 418.197V422.624H315.706L317.953 431.065H322.201V437.629H325.477V443.686L313.582 455.595L331.547 467.257L332.685 472.985L334.439 471.231V464.941L339.728 459.651V454.499L345.045 449.181V446.002L343.401 444.358V436.656H345.045L355.666 426.036H366.519V423.898H369.438L373.563 412.25V406.412H374.783V384.322H376.838L381.456 375.455H384.005L389.281 370.179V358.696L386.677 351.296Z" fill="#1E59A4" stroke="white" stroke-width="0.6" stroke-miterlimit="10"/>
<path d="M268.414 411.523L268.866 417.8L272.141 426.364H274.69H275.704L278.705 422.075L291.176 423.171V412.524L302.468 410.701L306.113 412.578L308.059 406.48L306.414 402.835H304.359V398.532H295.095V389.515L293.3 387.734H288.983L284.502 383.252H281.378L276.485 378.374V370.782H271.758L267.742 374.783H266.345L265.372 376.606L261.48 376.263L264.645 382.129L264.399 389.296L262.891 394.887L265.988 398.285L263.316 402.164L264.275 403.863L263.508 404.617L265.988 410.235L268.414 411.523Z" fill="#1E59A4" stroke="white" stroke-width="0.6" stroke-miterlimit="10"/>
<path d="M321.53 477.507H328.149L332.685 472.984L331.547 467.256L314.788 456.375L313.129 458.321L315.514 472.354L315.952 471.929L321.53 477.507Z" fill="#1E59A4" stroke="white" stroke-width="0.6" stroke-miterlimit="10"/>
<path d="M311.156 435.916L308.059 444.55L317.953 445.523L321.955 441.754L322.544 437.629H322.201V431.065H317.953L315.706 422.624H308.059V418.197L305.935 413.154L306.113 412.579L302.468 410.701L291.176 412.524V423.131L296.699 429.243L311.156 435.916Z" fill="#1E59A4" stroke="white" stroke-width="0.6" stroke-miterlimit="10"/>
<path d="M305.743 550.301H302.824L302.372 548.205L293.163 547.245L291.162 541.736L284.42 537.543L286.421 532.993L284.776 515.877H281.857L274.759 502.585V472.985L269.661 463.241V454.498L272.388 444.303V435.012L275.663 431.736V426.365H274.663H272.114L268.839 417.813L268.387 411.523L265.961 410.249L263.494 404.63L260.849 407.207L260.987 407.289L263.165 418.951V451.251L265.043 453.142V456.115L263.549 457.595V459.87L267.044 467.394C267.044 467.394 267.523 483.907 267.044 484.386C266.564 484.88 265.098 484.386 265.098 484.386V486.455L268.743 494.472V502.489L270.442 504.188V512.082H273.238V504.914L274.567 505.887L277.719 520.824H276.143L274.69 516.7L272.511 516.453L273.841 521.551L272.141 525.073L273.841 527.265H278.089V530.54H275.293L280.884 542.682H283.31V545.354L289.257 551.781L294.478 555.55L309.621 560.387L310.402 558.4L305.743 550.301Z" fill="#1E59A4" stroke="white" stroke-width="0.6" stroke-miterlimit="10"/>
<path d="M325.476 437.629H322.544L321.955 441.754L317.953 445.522L308.059 444.55L311.156 435.916L296.699 429.242L291.176 423.131V423.172L278.706 422.075L275.704 426.365V431.736L272.416 435.012V444.303L269.688 454.498V463.241L274.786 472.985V502.585L281.885 515.878H284.804L286.448 532.994L284.434 537.557L291.176 541.737L293.177 547.259L302.386 548.205L302.838 550.301H305.743L310.389 558.414L309.621 560.387L313.335 561.593L321.105 559.414V557.715H318.076L305.935 549.452H303.509V547.999L304.469 547.026L300.837 540.955V539.379H303.509V535.008L307.456 531.061V527.348H302.66L298.645 523.346V519.578H302.769V510.958H305.209V506.71H300.947L297.247 503.01V500.392L304.839 503.188L307.99 500.036V495.541L305.99 493.54V491.17L308.758 493.938L321.722 489.84V487.168L323.229 485.647V482.07H319.899V478.425L314.678 473.204L315.514 472.354L313.129 458.322L314.788 456.376L313.582 455.595L325.476 443.686V437.629Z" fill="#1E59A4" stroke="white" stroke-width="0.6" stroke-miterlimit="10"/>
<path d="M177.257 324.86L178.695 322.791L180.532 324.353L178.901 325.902L177.257 324.86Z" fill="#1E59A4" stroke="white" stroke-width="0.6" stroke-miterlimit="10"/>
<path d="M180.532 325.396L182.533 330.959L180.683 332.521L177.723 332.7L177.065 329.945L179.792 328.054L179.518 326.122L180.532 325.396Z" fill="#1E59A4" stroke="white" stroke-width="0.6" stroke-miterlimit="10"/>
<path d="M181.642 325.244L182.08 326.711L183.876 325.902L183.369 324.107L181.642 325.244Z" fill="#1E59A4" stroke="white" stroke-width="0.6" stroke-miterlimit="10"/>
<path d="M183.697 327.547L183.286 328.808L184.232 329.041L184.711 327.698L183.697 327.547Z" fill="#1E59A4" stroke="white" stroke-width="0.6" stroke-miterlimit="10"/>
</svg>
