<svg width="30" height="49" viewBox="0 0 30 49" fill="none" xmlns="http://www.w3.org/2000/svg">
<path d="M16.9821 20.128C16.9821 21.2568 16.088 22.1711 14.9842 22.1711C13.8804 22.1711 12.9863 21.2568 12.9863 20.128V12.9773C12.9863 11.8485 13.8804 10.9342 14.9842 10.9342C16.088 10.9342 16.9821 11.8485 16.9821 12.9773V20.128Z" stroke="#1B549E" stroke-width="1.49171" stroke-miterlimit="10"/>
<path d="M16.9821 35.4511C16.9821 36.5799 16.088 37.4942 14.9842 37.4942C13.8804 37.4942 12.9863 36.5799 12.9863 35.4511V28.3004C12.9863 27.1716 13.8804 26.2573 14.9842 26.2573C16.088 26.2573 16.9821 27.1716 16.9821 28.3004V35.4511Z" stroke="#1B549E" stroke-width="1.49171" stroke-miterlimit="10"/>
<path d="M16.9818 1.005V4.06961C16.9818 5.19739 16.0878 6.11268 14.984 6.11268C13.8802 6.11268 12.9861 5.19739 12.9861 4.06961V1.005H0.98291V47.9956H12.9861V44.931C12.9861 43.8033 13.8802 42.888 14.984 42.888C16.0878 42.888 16.9818 43.8033 16.9818 44.931V47.9956H29.017V1.005H16.9818V1.005Z" stroke="#1B549E" stroke-width="1.46747" stroke-miterlimit="10"/>
<path d="M23.4751 0.719116V47.7097" stroke="#1B549E" stroke-width="0.745853" stroke-miterlimit="10"/>
<path d="M6.49316 0.719116V47.7097" stroke="#1B549E" stroke-width="0.745853" stroke-miterlimit="10"/>
</svg>
