<svg width="28" height="56" viewBox="0 0 28 56" fill="none" xmlns="http://www.w3.org/2000/svg">
<path d="M6.2221 21.7216H5.18506V45.4552H6.2221V21.7216Z" fill="#1B549E"/>
<path d="M28 12.5964C28 10.1136 24.6224 8.5957 20.7407 7.8321V0L15.5556 3.62505V7.25836C14.5227 7.21915 13.4815 7.20677 12.4444 7.24907V0L7.25926 3.62505V7.83829C3.12459 8.64936 0 10.2447 0 12.5953C0 12.8997 0.0694815 13.1866 0.170074 13.4663H0V51.6464H0.277926C1.62815 54.2055 7.84311 56 14 56C20.1569 56 26.3719 54.2055 27.7221 51.6464H28V13.4663H27.8299C27.9305 13.1876 28 12.8997 28 12.5964ZM16.5926 4.16061L19.7037 1.9864V6.24297H18.6667V7.27487H19.7037V7.64429V9.73285V10.3902L16.5926 12.5644V9.36549V7.29757V4.16061ZM8.2963 4.16061L11.4074 1.9864V6.24297H10.3704V7.27487H11.4074V10.3891L8.2963 12.5633V4.16061ZM7.25926 9.93716V14.5508L12.4444 10.9257V9.30771C12.9474 9.28707 13.4628 9.27469 14 9.27469C14.5216 9.27469 15.037 9.30564 15.5556 9.32731V14.5508L20.7407 10.9257V9.94129C24.0997 10.6647 25.9259 11.8173 25.9259 12.5964C25.9259 13.7232 21.7166 15.918 14 15.918C6.28341 15.918 2.07407 13.7232 2.07407 12.5964C2.07407 11.8606 3.87437 10.675 7.25926 9.93716ZM14 53.9362C6.28341 53.9362 2.07407 51.6464 2.07407 50.6145V15.5466C4.67185 17.1501 9.34993 17.9818 14 17.9818C18.6501 17.9818 23.3281 17.1512 25.9259 15.5466V50.6145C25.9259 51.6464 21.7166 53.9362 14 53.9362Z" fill="#1B549E"/>
</svg>
