<svg width="30" height="48" viewBox="0 0 30 48" fill="none" xmlns="http://www.w3.org/2000/svg">
<path d="M15.1401 12.1244C22.0078 12.1244 27.5752 9.63391 27.5752 6.56167C27.5752 3.48944 22.0078 0.998901 15.1401 0.998901C8.27244 0.998901 2.70508 3.48944 2.70508 6.56167C2.70508 9.63391 8.27244 12.1244 15.1401 12.1244Z" stroke="white" stroke-width="1.49171" stroke-miterlimit="10"/>
<path d="M9.0127 25.0344V12.0536" stroke="white" stroke-width="1.49171" stroke-miterlimit="10"/>
<path d="M20.9863 12.0536V25.0344" stroke="white" stroke-width="1.49171" stroke-miterlimit="10"/>
<path d="M29.0024 47.002H0.998047V35.0198V24.036H29.0024V36.0183V47.002Z" stroke="white" stroke-width="1.49171" stroke-miterlimit="10"/>
<path d="M29.0024 36.0184L25.1397 31.0258H4.86068L0.998047 36.0184" stroke="white" stroke-width="1.49171" stroke-miterlimit="10"/>
<path d="M10.0103 17.2657H20.9865" stroke="white" stroke-width="0.745853" stroke-miterlimit="10"/>
<path d="M25.734 3.82056C25.734 6.43868 20.9913 8.56055 15.1399 8.56055C9.28862 8.56055 4.5459 6.43868 4.5459 3.82056" stroke="white" stroke-width="1.49171" stroke-miterlimit="10"/>
<path d="M8.51367 30.7458V46.7222" stroke="white" stroke-width="0.745853" stroke-miterlimit="10"/>
<path d="M20.4878 30.7457V46.7221" stroke="white" stroke-width="0.745853" stroke-miterlimit="10"/>
</svg>
