<svg width="28" height="51" viewBox="0 0 28 51" fill="none" xmlns="http://www.w3.org/2000/svg">
<path d="M20.533 15.6086H7.46631V37.07H20.533V15.6086Z" stroke="#1B549E" stroke-width="1.49171" stroke-miterlimit="10"/>
<path d="M24.7333 7.31665H3.2666V3.88869V0.488037H24.7333V4.21061V7.31665Z" stroke="#1B549E" stroke-width="0.745853" stroke-miterlimit="10"/>
<path d="M27.0664 7.80481H0.933105V46.8255H27.0664V7.80481Z" stroke="#1B549E" stroke-width="1.49171" stroke-miterlimit="10"/>
<path d="M4.6665 50.0248H23.3332" stroke="#1B549E" stroke-width="1.49171" stroke-miterlimit="10"/>
<path d="M6.91188 5.54137C7.63662 5.54137 8.22414 4.9273 8.22414 4.16979C8.22414 3.41229 7.63662 2.79822 6.91188 2.79822C6.18713 2.79822 5.59961 3.41229 5.59961 4.16979C5.59961 4.9273 6.18713 5.54137 6.91188 5.54137Z" fill="#1B549E"/>
<path d="M11.7542 5.54137C12.4789 5.54137 13.0664 4.9273 13.0664 4.16979C13.0664 3.41229 12.4789 2.79822 11.7542 2.79822C11.0294 2.79822 10.4419 3.41229 10.4419 4.16979C10.4419 4.9273 11.0294 5.54137 11.7542 5.54137Z" fill="#1B549E"/>
<path d="M16.2454 5.54137C16.9701 5.54137 17.5576 4.9273 17.5576 4.16979C17.5576 3.41229 16.9701 2.79822 16.2454 2.79822C15.5206 2.79822 14.9331 3.41229 14.9331 4.16979C14.9331 4.9273 15.5206 5.54137 16.2454 5.54137Z" fill="#1B549E"/>
<path d="M21.0877 5.54137C21.8124 5.54137 22.3999 4.9273 22.3999 4.16979C22.3999 3.41229 21.8124 2.79822 21.0877 2.79822C20.3629 2.79822 19.7754 3.41229 19.7754 4.16979C19.7754 4.9273 20.3629 5.54137 21.0877 5.54137Z" fill="#1B549E"/>
<path d="M20.533 17.3451C20.533 21.3857 17.6079 24.6615 13.9996 24.6615C10.3914 24.6615 7.46631 21.3857 7.46631 17.3451" stroke="#1B549E" stroke-width="0.745853" stroke-miterlimit="10"/>
<path d="M11.1997 28.5635H9.33301V30.5145H11.1997V28.5635Z" fill="#1B549E"/>
<path d="M14.9331 28.5635H13.0664V30.5145H14.9331V28.5635Z" fill="#1B549E"/>
<path d="M18.6665 28.5635H16.7998V30.5145H18.6665V28.5635Z" fill="#1B549E"/>
<path d="M11.1997 32.4658H9.33301V34.4169H11.1997V32.4658Z" fill="#1B549E"/>
<path d="M14.9331 32.4658H13.0664V34.4169H14.9331V32.4658Z" fill="#1B549E"/>
<path d="M18.6665 32.4658H16.7998V34.4169H18.6665V32.4658Z" fill="#1B549E"/>
</svg>
