<svg width="43" height="32" viewBox="0 0 43 32" fill="none" xmlns="http://www.w3.org/2000/svg">
<g clip-path="url(#clip0_887:2345)">
<path d="M10.2824 31.0589H0.93457V16.6024V2.82361H10.2824V17.8071V31.0589Z" stroke="#1B549E" stroke-width="1.49171" stroke-miterlimit="10"/>
<path d="M42.0651 31.0589H32.7173V16.6024V2.82361H42.0651V17.8071V31.0589Z" stroke="#1B549E" stroke-width="1.49171" stroke-miterlimit="10"/>
<path d="M32.717 11.2935H10.2822V6.13585V0.940552H32.717V6.62526V11.2935Z" stroke="#1B549E" stroke-width="1.49171" stroke-miterlimit="10"/>
<path d="M14.4888 -0.000610352V8.46998" stroke="#1B549E" stroke-width="0.745853" stroke-miterlimit="10"/>
<path d="M19.1626 -0.000610352V8.46998" stroke="#1B549E" stroke-width="0.745853" stroke-miterlimit="10"/>
<path d="M23.8364 -0.000610352V8.46998" stroke="#1B549E" stroke-width="0.745853" stroke-miterlimit="10"/>
<path d="M28.5107 -0.000610352V8.46998" stroke="#1B549E" stroke-width="0.745853" stroke-miterlimit="10"/>
<path d="M38.3261 6.85168H36.4565V8.73404H38.3261V6.85168Z" fill="#1B549E"/>
<path d="M6.54339 6.85168H4.67383V8.73404H6.54339V6.85168Z" fill="#1B549E"/>
<path d="M38.3261 25.6753H36.4565V27.5576H38.3261V25.6753Z" fill="#1B549E"/>
<path d="M6.54339 25.6753H4.67383V27.5576H6.54339V25.6753Z" fill="#1B549E"/>
<path d="M10.2822 26.3528H32.717" stroke="#1B549E" stroke-width="1.49171" stroke-miterlimit="10"/>
</g>
<defs>
<clipPath id="clip0_887:2345">
<rect width="43" height="32" fill="#1B549E"/>
</clipPath>
</defs>
</svg>
