<svg width="45" height="48" viewBox="0 0 45 48" fill="none" xmlns="http://www.w3.org/2000/svg">
<g clip-path="url(#clip0_887:2360)">
<path d="M19.5653 35.9876H7.82617V18.0134V0.9729H37.174V19.4918V35.9876H25.4349" stroke="#1B549E" stroke-width="1.49171" stroke-miterlimit="10"/>
<path d="M7.82585 30.1516H0.978027V18.2466V6.80847H7.82585V19.2582V30.1516Z" stroke="#1B549E" stroke-width="1.49171" stroke-miterlimit="10"/>
<path d="M44.0217 30.1516H37.1738V18.2466V6.80847H44.0217V19.2582V30.1516Z" stroke="#1B549E" stroke-width="1.49171" stroke-miterlimit="10"/>
<path d="M24.6885 47.6591H19.6534L17.6392 17.5076H26.7027L24.6885 47.6591Z" stroke="#1B549E" stroke-width="1.49171" stroke-miterlimit="10"/>
<path d="M22.5 13.8893V17.7798" stroke="#1B549E" stroke-width="1.49171" stroke-miterlimit="10"/>
<path d="M22.5001 8.00867C17.6372 8.00867 13.6958 11.9274 13.6958 16.7623C13.6958 20.1918 15.6836 23.1525 18.5724 24.5881L18.1293 17.735H27.1929L26.7605 24.4218C29.4683 22.9298 31.3045 20.0605 31.3045 16.7623C31.3045 11.9274 27.3631 8.00867 22.5001 8.00867Z" stroke="#1B549E" stroke-width="1.49171" stroke-miterlimit="10"/>
</g>
<defs>
<clipPath id="clip0_887:2360">
<rect width="45" height="48" fill="#1B549E"/>
</clipPath>
</defs>
</svg>
