<svg width="32" height="40" viewBox="0 0 32 40" fill="none" xmlns="http://www.w3.org/2000/svg">
<path d="M27.2943 18.6211H4.70605V22.2993H27.2943V18.6211Z" stroke="white" stroke-width="1.49171" stroke-miterlimit="10"/>
<path d="M0.941406 39.6557V0.229492" stroke="white" stroke-width="1.49171" stroke-miterlimit="10"/>
<path d="M31.0586 0.229492V39.7706" stroke="white" stroke-width="1.49171" stroke-miterlimit="10"/>
<path d="M30.4538 10.3448H1.27734V11.2644H30.4538V10.3448Z" fill="white"/>
<path d="M11.1597 0.229492V1.03319C11.1597 2.11275 12.354 2.98818 13.8279 2.98818H17.9041C19.378 2.98818 20.5724 2.11275 20.5724 1.03319V0.919163V0.229492" stroke="white" stroke-width="1.49171" stroke-miterlimit="10"/>
<path d="M21.647 0.229492V1.03319C21.647 2.11275 22.8413 2.98818 24.3152 2.98818H28.3914C29.8644 2.98818 31.0587 2.11275 31.0587 1.03319V0.919163V0.229492" stroke="white" stroke-width="1.49171" stroke-miterlimit="10"/>
<path d="M0.941406 0.229492V1.03319C0.941406 2.11275 2.13576 2.98818 3.60964 2.98818H7.68588C9.15882 2.98818 10.3532 2.11275 10.3532 1.03319V0.919163V0.229492" stroke="white" stroke-width="1.49171" stroke-miterlimit="10"/>
<path d="M21.6472 0.229492H20.7061V11.2642H21.6472V0.229492Z" fill="white"/>
<path d="M11.2942 0.229492H10.353V11.2642H11.2942V0.229492Z" fill="white"/>
<path d="M6.11782 8.50539C6.89752 8.50539 7.52958 7.88784 7.52958 7.12605C7.52958 6.36426 6.89752 5.7467 6.11782 5.7467C5.33812 5.7467 4.70605 6.36426 4.70605 7.12605C4.70605 7.88784 5.33812 8.50539 6.11782 8.50539Z" stroke="white" stroke-width="1.49171" stroke-miterlimit="10"/>
<path d="M15.8654 8.50539C16.6451 8.50539 17.2771 7.88784 17.2771 7.12605C17.2771 6.36426 16.6451 5.7467 15.8654 5.7467C15.0857 5.7467 14.4536 6.36426 14.4536 7.12605C14.4536 7.88784 15.0857 8.50539 15.8654 8.50539Z" stroke="white" stroke-width="1.49171" stroke-miterlimit="10"/>
<path d="M25.8825 8.50539C26.6622 8.50539 27.2942 7.88784 27.2942 7.12605C27.2942 6.36426 26.6622 5.7467 25.8825 5.7467C25.1028 5.7467 24.4707 6.36426 24.4707 7.12605C24.4707 7.88784 25.1028 8.50539 25.8825 8.50539Z" stroke="white" stroke-width="1.49171" stroke-miterlimit="10"/>
<path d="M30.4538 28.7361H1.27734V29.6556H30.4538V28.7361Z" fill="white"/>
<path d="M11.1597 39.7705V38.9668C11.1597 37.8873 12.354 37.0118 13.8279 37.0118H17.9041C19.378 37.0118 20.5724 37.8873 20.5724 38.9668V39.0808V39.7705" stroke="white" stroke-width="1.49171" stroke-miterlimit="10"/>
<path d="M21.647 39.7705V38.9668C21.647 37.8873 22.8413 37.0118 24.3152 37.0118H28.3914C29.8653 37.0118 31.0597 37.8873 31.0597 38.9668V39.0808V39.7705" stroke="white" stroke-width="1.49171" stroke-miterlimit="10"/>
<path d="M0.941406 39.7705V38.9668C0.941406 37.8873 2.13576 37.0118 3.60964 37.0118H7.68588C9.15976 37.0118 10.3541 37.8873 10.3541 38.9668V39.0808V39.7705" stroke="white" stroke-width="1.49171" stroke-miterlimit="10"/>
<path d="M21.6472 28.7361H20.7061V39.7708H21.6472V28.7361Z" fill="white"/>
<path d="M11.2942 28.7361H10.353V39.7708H11.2942V28.7361Z" fill="white"/>
<path d="M6.11782 34.2536C6.89752 34.2536 7.52958 33.636 7.52958 32.8742C7.52958 32.1124 6.89752 31.4949 6.11782 31.4949C5.33812 31.4949 4.70605 32.1124 4.70605 32.8742C4.70605 33.636 5.33812 34.2536 6.11782 34.2536Z" stroke="white" stroke-width="1.49171" stroke-miterlimit="10"/>
<path d="M15.8654 34.2536C16.6451 34.2536 17.2771 33.636 17.2771 32.8742C17.2771 32.1124 16.6451 31.4949 15.8654 31.4949C15.0857 31.4949 14.4536 32.1124 14.4536 32.8742C14.4536 33.636 15.0857 34.2536 15.8654 34.2536Z" stroke="white" stroke-width="1.49171" stroke-miterlimit="10"/>
<path d="M25.8825 34.2536C26.6622 34.2536 27.2942 33.636 27.2942 32.8742C27.2942 32.1124 26.6622 31.4949 25.8825 31.4949C25.1028 31.4949 24.4707 32.1124 24.4707 32.8742C24.4707 33.636 25.1028 34.2536 25.8825 34.2536Z" stroke="white" stroke-width="1.49171" stroke-miterlimit="10"/>
</svg>
