<svg width="52" height="52" viewBox="0 0 52 52" fill="none" xmlns="http://www.w3.org/2000/svg">
<g clip-path="url(#clip0_277:249)">
<path d="M50.4172 30.078L47.3706 28.3189C47.4528 27.557 47.496 26.7834 47.496 25.9999C47.496 25.2164 47.4528 24.4429 47.3706 23.6809L50.4172 21.9219C51.0684 21.546 51.534 20.9388 51.7287 20.2123C51.9231 19.4858 51.8232 18.7271 51.4472 18.0761L45.5861 7.92365C45.0844 7.05489 44.1494 6.5153 43.1451 6.5153C42.6536 6.5153 42.1681 6.64596 41.7404 6.89306L38.685 8.65701C37.4432 7.74639 36.1006 6.96565 34.6771 6.33498V2.81533C34.6769 1.26302 33.4136 0 31.8616 0H20.1383C18.586 0 17.3232 1.26302 17.3232 2.81533V6.33513C15.8995 6.9658 14.5569 7.74639 13.315 8.65732L10.2596 6.89321C9.83183 6.64626 9.34618 6.51561 8.85503 6.51561C7.85073 6.51561 6.91565 7.05505 6.4138 7.9238L0.552858 18.0763C0.176779 18.7273 0.0768371 19.4862 0.271372 20.2125C0.466059 20.939 0.931688 21.5461 1.58284 21.922L4.62952 23.6811C4.54731 24.443 4.50406 25.2166 4.50406 26.0001C4.50406 26.7836 4.54731 27.557 4.62952 28.3191L1.58284 30.0781C0.931688 30.454 0.466059 31.0612 0.271372 31.7877C0.0768371 32.5142 0.176779 33.273 0.552858 33.9239L6.4138 44.0764C6.9155 44.9451 7.85057 45.4846 8.85503 45.4846C9.34634 45.4846 9.83198 45.354 10.2596 45.1069L13.315 43.343C14.5569 44.2538 15.8995 45.0345 17.3232 45.6652V49.1851C17.3232 49.937 17.616 50.6439 18.1478 51.1756C18.6797 51.7072 19.3865 52.0002 20.1382 52.0002H31.8614C33.4134 52.0002 34.6768 50.7371 34.6768 49.185V45.6649C36.1003 45.0344 37.443 44.2536 38.6847 43.3428L41.7401 45.1068C42.1678 45.3539 42.6534 45.4844 43.1447 45.4844C44.1489 45.4844 45.084 44.945 45.5858 44.0762L51.4469 33.9237C51.8228 33.2727 51.9228 32.5139 51.7284 31.7875C51.5339 31.061 51.0682 30.4539 50.4172 30.078ZM25.9999 41.2817C17.56 41.2817 10.7183 34.4396 10.7183 26.0001C10.7183 17.5605 17.56 10.7185 25.9999 10.7185C34.4399 10.7185 41.2815 17.5605 41.2815 26.0001C41.2815 34.4396 34.4401 41.2817 25.9999 41.2817Z" fill="white"/>
<path d="M36.5356 18.0011C36.4453 17.9782 36.3495 18.0045 36.2837 18.0705L33.5241 20.8386C33.3586 20.7713 32.9413 20.5423 32.1689 19.7725C31.3968 19.0028 31.1665 18.5862 31.0988 18.4209L33.858 15.6529C33.9239 15.5869 33.95 15.4909 33.9268 15.4008C33.9035 15.3105 33.8343 15.2391 33.7448 15.2131C33.3468 15.0976 32.9345 15.0391 32.5192 15.0391C31.3465 15.0391 30.2445 15.4964 29.4167 16.3268C28.5903 17.1559 28.1361 18.2569 28.1377 19.4273C28.1386 20.0305 28.2614 20.6144 28.4928 21.1523L25.1481 24.4971L21.7226 21.0716C21.7195 21.0658 21.7174 21.0595 21.714 21.0537L20.1475 18.3692C20.1205 18.3229 20.0838 18.2832 20.0396 18.2525L17.3982 16.4196C17.2523 16.3183 17.0545 16.3362 16.9291 16.4616L15.7519 17.6386C15.6263 17.7642 15.6086 17.9618 15.7099 18.1079L17.5426 20.7493C17.5732 20.7933 17.6131 20.8302 17.6594 20.8572L20.3445 22.4233C20.3497 22.4263 20.3554 22.4272 20.3605 22.43L23.7879 25.8572L21.2102 28.4349C20.6705 28.2029 20.0844 28.0801 19.4796 28.0801C18.3066 28.0801 17.2046 28.5374 16.3766 29.368C15.2461 30.5016 14.8243 32.1613 15.2761 33.6992C15.3023 33.7886 15.3739 33.8577 15.4643 33.8806C15.5546 33.9037 15.6505 33.8774 15.7163 33.8111L18.4756 31.0433C18.6411 31.1104 19.0584 31.3396 19.8307 32.1092C20.6029 32.8791 20.8331 33.2955 20.9004 33.4609L18.1412 36.229C18.0753 36.295 18.0492 36.3909 18.0726 36.4811C18.0958 36.5714 18.165 36.6428 18.2546 36.6688C18.6524 36.7841 19.0647 36.8427 19.4799 36.8427C20.6527 36.8427 21.7547 36.3853 22.5828 35.5547C23.4092 34.7259 23.8632 33.6248 23.8616 32.4544C23.8606 31.8512 23.7378 31.2672 23.5064 30.7294L26.0833 28.1525L27.1754 29.2444L26.4309 29.9889C26.2686 30.1509 26.1792 30.366 26.1792 30.5949C26.179 30.824 26.2684 31.0393 26.4305 31.2012L31.6894 36.4599C31.8509 36.6218 32.0659 36.7109 32.295 36.7109C32.5239 36.7109 32.7395 36.6218 32.9017 36.4599L35.7503 33.6106C35.9123 33.4488 36.0016 33.2335 36.0017 33.0044C36.0017 32.7753 35.9125 32.5602 35.7505 32.3983L30.4921 27.1401C30.3303 26.9783 30.1151 26.889 29.886 26.889C29.6569 26.889 29.4416 26.9783 29.2798 27.1404L28.5357 27.8845L27.4437 26.7926L30.789 23.4471C31.3288 23.6793 31.9146 23.802 32.5196 23.8021C32.5198 23.8021 32.5198 23.8021 32.52 23.8021C33.6927 23.8021 34.7946 23.3446 35.6224 22.5139C36.7528 21.3808 37.1747 19.7212 36.7236 18.1828C36.6976 18.0931 36.6261 18.024 36.5356 18.0011ZM29.8278 29.0109C30.0151 28.8232 30.3191 28.8232 30.5068 29.0109L33.88 32.3844C34.0677 32.5718 34.0677 32.8756 33.88 33.0631C33.6924 33.2503 33.389 33.2503 33.2017 33.0631L29.8278 29.6895C29.6412 29.5019 29.6412 29.1981 29.8278 29.0109ZM28.3007 30.537C28.4887 30.35 28.7929 30.35 28.9804 30.5373L32.3538 33.911C32.541 34.0982 32.5412 34.4022 32.3538 34.5894C32.1659 34.7769 31.8619 34.7769 31.675 34.5894L28.3007 31.2157C28.1138 31.0286 28.1138 30.7248 28.3007 30.537Z" fill="white"/>
</g>
<defs>
<clipPath id="clip0_277:249">
<rect width="52" height="52" fill="white"/>
</clipPath>
</defs>
</svg>
