<svg width="26" height="26" viewBox="0 0 26 26" fill="none" xmlns="http://www.w3.org/2000/svg">
<g clip-path="url(#clip0_887:2416)">
<path d="M13.0516 17.7671C12.6234 17.7671 12.2759 17.4196 12.2759 16.9914V0.960502C12.2759 0.532321 12.6234 0.184814 13.0516 0.184814C13.4797 0.184814 13.8273 0.532321 13.8273 0.960502V16.9914C13.8273 17.4196 13.4797 17.7671 13.0516 17.7671Z" fill="white"/>
<path d="M13.0516 17.7671C12.8529 17.7671 12.6545 17.6916 12.5033 17.5395L8.36641 13.4026C8.06341 13.0996 8.06341 12.6083 8.36641 12.3051C8.66942 12.0021 9.16066 12.0021 9.46385 12.3051L13.0525 15.894L16.6414 12.3051C16.9444 12.0021 17.4359 12.0021 17.7389 12.3051C18.0419 12.6083 18.0419 13.0996 17.7389 13.4026L13.6017 17.5395C13.4487 17.6916 13.2503 17.7671 13.0516 17.7671Z" fill="white"/>
<path d="M22.6184 25.0067H3.48488C1.91589 25.0067 0.640625 23.7315 0.640625 22.1625V17.5084C0.640625 17.0802 0.988132 16.7327 1.41631 16.7327C1.84449 16.7327 2.192 17.0802 2.192 17.5084V22.1625C2.192 22.8751 2.77225 23.4554 3.48488 23.4554H22.6184C23.331 23.4554 23.9113 22.8751 23.9113 22.1625V17.5084C23.9113 17.0802 24.2588 16.7327 24.6869 16.7327C25.1151 16.7327 25.4626 17.0802 25.4626 17.5084V22.1625C25.4626 23.7315 24.1874 25.0067 22.6184 25.0067Z" fill="white"/>
</g>
<defs>
<clipPath id="clip0_887:2416">
<rect width="24.822" height="24.822" fill="white" transform="translate(0.640625 0.184082)"/>
</clipPath>
</defs>
</svg>
